<svg xmlns="http://www.w3.org/2000/svg" id="logo" viewBox="0 0 297.51953 32.89941"><style id="style10">.st0{fill:#fc921f}.st1{fill:#fff}</style><g id="text" transform="translate(-31.097 -32.534)"><path class="st0" d="M48.663 35.485H42.4V56.29h-5.004V35.485h-6.299v-2.592h17.566v2.592z" id="path12" fill="#fc921f"/><path class="st1" d="M63.208 53.159s-1.728 3.527-6.372 3.527c-5.075 0-8.422-2.628-8.422-9.07 0-6.371 3.203-9.684 7.99-9.684 4.464 0 7.055 2.88 7.055 8.135 0 1.44-.287 2.267-.287 2.267h-9.683c.072 4.356 1.188 5.94 3.924 5.94 2.771 0 4.175-2.375 4.175-2.375zm-9.72-7.164h5.508v-.828c0-3.67-.684-4.931-2.592-4.931-1.907 0-2.735 1.223-2.915 5.759z" id="path14" fill="#fff"/><path class="st1" d="M81.495 56.29h-4.787V40.92H71.38v15.37h-4.787V38.292h14.902V56.29z" id="path16" fill="#fff"/><path class="st1" d="M99.495 56.29h-4.787V40.92h-3.24c-.216 8.963-2.052 15.766-6.515 15.766a4.46 4.46 0 0 1-.936-.107l.18-2.881c.144.037.288.037.432.037 3.131 0 4.14-6.084 4.14-15.443h10.726V56.29z" id="path18" fill="#fff"/><path class="st1" d="M111.124 56.686c-5.4 0-8.387-3.42-8.387-9.394 0-5.976 2.987-9.395 8.387-9.395 5.435 0 8.422 3.419 8.422 9.395 0 5.974-3.239 9.394-8.422 9.394zm-3.24-9.43c0 5.22.864 7.054 3.24 7.054 2.376 0 3.24-1.835 3.24-7.018 0-5.184-.864-6.984-3.24-6.984-2.376 0-3.24 1.8-3.24 6.947z" id="path20" fill="#fff"/><path class="st0" d="M124.364 32.893h4.968v10.834l2.124-1.547 6.875-9.287h3.455l-7.09 9.143 8.746 14.254h-6.299l-6.264-10.51-1.547 1.08v9.43h-4.968V32.893z" id="path22" fill="#fc921f"/><path class="st1" d="M146.288 38.292h3.852l.648 1.62h.108s1.511-2.015 4.895-2.015c4.284 0 6.876 3.562 6.876 9.034 0 5.867-2.7 9.755-7.128 9.755-3.167 0-4.355-1.367-4.355-1.367h-.108v10.114h-4.788zm4.788 3.96v10.51s.827 1.188 2.663 1.188c2.628 0 3.78-1.656 3.78-6.91 0-5.077-1.188-6.336-3.42-6.336-1.908 0-2.952 1.404-3.023 1.548z" id="path24" fill="#fff"/><path class="st1" d="M166.88 39.336s2.772-1.439 5.58-1.439c4.21 0 6.947 1.44 6.947 6.299v8.17c0 1.512.396 1.908.756 1.908.431 0 1.223-.252 1.223-.252l.144 1.872s-2.484.792-3.995.792c-1.404 0-2.124-.648-2.376-2.232h-.18s-1.008 2.232-4.715 2.232c-3.312 0-5.544-1.764-5.544-4.715 0-4.788 6.048-6.012 9.9-6.336v-1.044c0-3.346-.9-4.283-2.989-4.283-1.691 0-4.283 1.331-4.283 1.331zm7.74 8.207c-2.989.325-4.897 1.295-4.897 3.816 0 1.98.865 2.915 2.125 2.915 1.979 0 2.772-1.98 2.772-1.98z" id="path26" fill="#fff"/><path class="st1" d="M184.375 38.292h4.788v7.523h5.58v-7.523h4.787V56.29h-4.787v-8.027h-5.58v8.027h-4.788z" id="path28" fill="#fff"/><path class="st0" d="M205.247 51.215s1.908 2.735 5.615 2.735c3.492 0 5.615-1.835 5.904-8.098h-9.756v-2.557h9.756c-.108-6.478-1.44-8.098-5.435-8.098-2.7 0-5.256 1.583-5.256 1.583l-.468-2.52s3.023-1.726 6.3-1.726c7.342 0 10.51 4.607 10.51 11.949 0 7.308-4.068 12.203-10.439 12.203-6.048 0-8.17-3.311-8.17-3.311z" id="path30" fill="#fc921f"/><path class="st0" d="M225.875 38.292h4.788v7.523l2.267-1.188 3.996-6.335h2.772l-4.248 6.732 5.615 11.266h-5.436l-3.814-8.53-1.152.503v8.027h-4.788V38.292z" id="path32" fill="#fc921f"/><path class="st0" d="M251.721 40.308c-2.554 0-4.031 1.224-4.031 7.019 0 5.76 1.691 6.947 3.888 6.947 2.843 0 4.103-2.483 4.103-2.483l1.693 1.08s-1.332 3.815-6.3 3.815c-5.507 0-8.568-3.203-8.568-9.287 0-5.831 3.24-9.502 8.676-9.502 2.484 0 5.255 1.403 5.255 1.403l-.468 2.304s-2.555-1.296-4.248-1.296z" id="path34" fill="#fc921f"/><path class="st0" d="M274.58 56.29h-4.787V40.92h-5.327v15.37h-4.788V38.292h14.903V56.29z" id="path36" fill="#fc921f"/><path class="st0" d="M292.616 53.159s-1.727 3.527-6.371 3.527c-5.075 0-8.422-2.628-8.422-9.07 0-6.371 3.203-9.684 7.99-9.684 4.464 0 7.055 2.88 7.055 8.135 0 1.44-.287 2.267-.287 2.267h-9.684c.072 4.356 1.188 5.94 3.924 5.94 2.771 0 4.176-2.375 4.176-2.375zm-9.719-7.164h5.508v-.828c0-3.67-.684-4.931-2.592-4.931s-2.735 1.223-2.916 5.759z" id="path38" fill="#fc921f"/><path class="st0" d="M296.002 38.292h3.852l.647 1.62h.109s1.512-2.015 4.894-2.015c4.284 0 6.875 3.562 6.875 9.034 0 5.867-2.699 9.755-7.127 9.755-3.167 0-4.355-1.367-4.355-1.367h-.107v10.114h-4.788zm4.788 3.96v10.51s.828 1.188 2.664 1.188c2.627 0 3.779-1.656 3.779-6.91 0-5.077-1.188-6.336-3.42-6.336-1.908 0-2.951 1.404-3.023 1.548z" id="path40" fill="#fc921f"/><path class="st0" d="M323.433 40.92v15.37h-4.75V40.92h-5.185v-2.628h15.119v2.628z" id="path42" fill="#fc921f"/></g></svg>