<?xml version="1.0" encoding="utf-8"?>
<!-- Generator: Adobe Illustrator 21.0.2, SVG Export Plug-In . SVG Version: 6.00 Build 0)  -->
<svg version="1.1" id="Layer_1" xmlns="http://www.w3.org/2000/svg" xmlns:xlink="http://www.w3.org/1999/xlink" x="0px" y="0px"
	 viewBox="0 0 509.888 509.888" style="enable-background:new 0 0 509.888 509.888;" xml:space="preserve">
<style type="text/css">
	.st0{fill:none;}
	.st1{fill:#333333;}
	.st2{fill:#FC921F;}
</style>
<g>
	<path class="st0" d="M152.88,254.78003c-5.91003-4.18005-9.94-11.81006-9.94-20.62006c0-7.81,3.16998-14.69995,8-19.07996v18.87
		C150.94,241.03998,151.65997,247.98999,152.88,254.78003z"/>
	<path class="st0" d="M197.27002,490.15997H56.70001l12.32001-61.56c1.32001-6.60999,3.65997-12.84998,6.85999-18.57996
		c4.65997-8.38,11.13-15.62,18.84998-21.21002c0,0,0.01001,0,0.02002-0.01001c1.28998-0.94,2.62-1.83002,3.97998-2.66998
		c0.01001,0,0.01001,0,0.02002-0.01001c0.67999-0.40997,1.37-0.82001,2.06-1.21997c0.01001,0,0.01001,0,0.02002-0.01001
		c1.03998-0.60004,2.10999-1.16003,3.19-1.69c0.01001,0,0.02997-0.01001,0.04999-0.02002c1.02002-0.51001,2.07001-0.98999,3.12-1.44
		c0.10999-0.04999,0.22998-0.09998,0.34003-0.14996c0.65997-0.28003,1.31995-0.55005,1.98999-0.80005
		c0.66998-0.25995,1.33997-0.5,2.01996-0.72998c2.81-0.97998,5.70001-1.76001,8.66003-2.33002
		c0.26001-0.04999,0.51996-0.09998,0.77997-0.14996c0.15002-0.03003,0.31-0.04999,0.46002-0.08002l15.96002-2.78003
		l18.45996-3.20996l-7.75,27.92999L168,405.78998l-19.63,19.63L197.27002,490.15997z"/>
	<path class="st0" d="M342.94,209.91998v24.03003c0,40.62-24.22998,76.96997-61.72998,92.59998
		c-16.69,6.95001-35.84003,6.95001-52.53003,0c-37.5-15.63-61.73999-51.97998-61.73999-92.59998V210.13
		c83.88-0.53003,115.87-9.34003,127.5-14.58002C301.90002,200.22998,318.21997,208.40997,342.94,209.91998z"/>
	<path class="st0" d="M370.94,234.15997c0,10.87006-6.08002,19.96002-14.35999,22.91003
		c1.51001-7.51001,2.35999-15.23999,2.35999-23.12V212.19C366,215.90002,370.94,224.34003,370.94,234.15997z"/>
	<polygon class="st0" points="237.78003,490.15997 217.33002,490.15997 169.52002,426.89001 197.89001,398.52002 167.64001,388.88 
		173.96002,366.14001 201.40002,344.65997 	"/>
	<path class="st0" d="M293.56,338.45001L255.63,490.15997h-1.37l-37.92999-151.69995c2.03998,0.98999,4.07996,1.97998,6.19,2.85999
		c10.29999,4.28998,21.35999,6.44,32.41998,6.44s22.12-2.16003,32.42999-6.45001
		C289.47998,340.42999,291.52002,339.44,293.56,338.45001z"/>
	<polygon class="st0" points="312,398.52002 340.37,426.89001 292.56,490.15997 272.10999,490.15997 308.29999,345.40002 
		335.95001,366.21997 342.25,388.88 	"/>
	<polygon class="st1" points="56.70398,490.15601 56.70398,490.15594 56.70398,490.15594 	"/>
	<path class="st1" d="M37.17999,506.15997h0.02002l0.01001-0.03998L37.17999,506.15997z M203.51001,85.84998
		c-10.53003,5.01001-20.12,11.47003-28.57001,19.07001v9.23999h13.77002c6.54999-5.44,13.79999-10.10999,21.66998-13.84998
		L203.51001,85.84998z M306.38,85.84998l-6.87,14.46002c7.85999,3.73999,15.12,8.40997,21.65997,13.84998H334.94v-9.23999
		C326.48999,97.32001,316.90997,90.85999,306.38,85.84998z"/>
	<path class="st1" d="M456.56,425.45001c-6.47998-32.44-32.75-58.04999-65.34998-63.72003l-18.71002-3.25l-26.28998-4.57001
		l-34.79004-26.19c18.56-13.56995,32.54004-32.26996,40.38-53.65997C371.25,273.53998,386.94,255.88,386.94,234.15997
		c0-11.77997-4.67999-22.27997-12-29.59998v-10.40002c0-34.34998-15.02002-66.76996-40-89.23999v9.23999h-13.77002
		c23.5,19.51001,37.77002,48.84003,37.77002,80h-8c-33.17999,0-50.72003-14.02997-50.84998-14.13995l-4.84003-4.62l-5.15002,4.39996
		c-0.85999,0.59003-22.00995,14.35999-131.15997,14.35999h-8c0-31.15997,14.27997-60.48999,37.77002-80H174.94v-9.23999
		c-24.97003,22.47003-40,54.89001-40,89.23999v15.16003c-4.91998,6.84998-8,15.40997-8,24.83997
		c0,20.14001,13.52002,36.69,30.98999,39.44c7.70001,21.32001,21.5,39.96002,39.84003,53.58002l-34.17999,26.73999l-44.93005,7.81
		c-1.50995,0.26001-3.01996,0.57001-4.5,0.92999c-1,0.23004-1.98999,0.49005-2.97998,0.76001
		c-0.27997,0.07001-0.57001,0.15002-0.84998,0.23999c-0.31,0.09003-0.62,0.18005-0.92999,0.28003
		c-0.51001,0.15002-1.01001,0.31-1.51001,0.46997c-1.04999,0.34003-2.09003,0.71002-3.12,1.09003
		c-0.20001,0.07001-0.40002,0.15002-0.59003,0.21997c-0.88,0.34003-1.75,0.68005-2.60999,1.04004
		c-0.16998,0.07001-0.33002,0.14001-0.48999,0.20996c-24.16003,10.31006-42.47003,32.14001-47.73999,58.48004l-16.13,80.66998
		l-0.01001,0.03998h435.5L456.56,425.45001z M358.94,233.95001V212.19c7.06,3.71002,12,12.15002,12,21.96997
		c0,10.87006-6.08002,19.96002-14.35999,22.91003C358.09003,249.56,358.94,241.83002,358.94,233.95001z M142.94,234.15997
		c0-7.81,3.16998-14.69995,8-19.07996v18.87c0,7.08997,0.71997,14.03998,1.94,20.83002
		C146.96997,250.59998,142.94,242.96997,142.94,234.15997z M166.94,233.95001V210.13c83.88-0.53003,115.87-9.34003,127.5-14.58002
		c7.46002,4.67999,23.77997,12.85999,48.5,14.37v24.03003c0,40.62-24.22998,76.96997-61.72998,92.59998
		c-16.69,6.95001-35.84003,6.95001-52.53003,0C191.17999,310.91998,166.94,274.57001,166.94,233.95001z M56.70001,490.15997
		l12.32001-61.56c1.32001-6.60999,3.65997-12.84998,6.85999-18.57996c4.65997-8.38,11.13-15.62,18.84998-21.21002
		c0,0,0.01001,0,0.02002-0.01001c1.28998-0.94,2.62-1.83002,3.97998-2.66998c0.01001,0,0.01001,0,0.02002-0.01001
		c0.67999-0.41998,1.37-0.83002,2.06-1.21997c0.01001,0,0.01001,0,0.02002-0.01001c1.03998-0.60004,2.10999-1.16003,3.19-1.69
		c0.01001,0,0.02997-0.01001,0.04999-0.02002c1.02002-0.51001,2.07001-0.98999,3.12-1.44
		c0.10999-0.04999,0.22998-0.09998,0.34003-0.14996c0.65997-0.27002,1.31995-0.54004,1.98999-0.80005
		c0.66998-0.25995,1.33997-0.5,2.01996-0.72998c2.81-0.97998,5.70001-1.76001,8.66003-2.33002
		c0.26001-0.04999,0.51996-0.09998,0.77997-0.14996c0.15002-0.03003,0.31-0.04999,0.46002-0.08002l15.96002-2.78003
		l18.45996-3.20996l-7.75,27.92999L168,405.78998l-19.63,19.63l48.90002,64.73999H56.70001z M217.33002,490.15997l-47.81-63.26996
		l28.37-28.37l-30.25-9.64001l6.32001-22.73999l27.44-21.48004l36.38,145.5H217.33002z M254.26001,490.15997l-37.92999-151.69995
		c2.03998,0.98999,4.07996,1.97998,6.19,2.85999c10.29999,4.28998,21.35999,6.44,32.41998,6.44s22.12-2.16003,32.42999-6.45001
		c2.10999-0.88,4.15002-1.87,6.19-2.85999L255.63,490.15997H254.26001z M272.10999,490.15997l36.19-144.75995l27.65002,20.81995
		L342.25,388.88L312,398.52002l28.37,28.37l-47.81,63.26996H272.10999z M312.62,490.15997l48.90002-64.73999l-19.63-19.63
		l19.89001-6.34998l-7.76001-27.92999L372.5,374.71997L388.46002,377.5c26.14996,4.53998,47.19995,25.08002,52.40997,51.09998
		l12.31,61.56H312.62z"/>
</g>
<path class="st1" d="M75.88,410.02002C72.70001,415.75,70.34998,422,69.03003,428.59998l-12.31006,61.56h-0.01996l12.32001-61.56
	C70.34003,421.98999,72.67999,415.75,75.88,410.02002z"/>
<path class="st1" d="M98.72998,386.13c-1.35999,0.84998-2.69,1.73999-3.97998,2.66998
	C96.03998,387.85999,97.37,386.96997,98.72998,386.13z"/>
<path class="st1" d="M104.02002,383.20001c-1.08002,0.53998-2.15002,1.09998-3.19,1.69
	C101.87,384.28998,102.94,383.72998,104.02002,383.20001z"/>
<path class="st2" d="M316.84998,82.15997c-1.50995-5.85999-3.81995-11.37994-6.81995-16.46997l12.78998-12.78998l-22.62-22.62
	l-12.79004,12.78998c-5.08997-3-10.60999-5.31-16.46997-6.82001V18.15997h-32V36.25
	c-5.84998,1.51001-11.37,3.82001-16.46002,6.82001L209.69,30.28003l-22.63,22.62L199.85999,65.69
	c-3,5.09003-5.31,10.60999-6.82001,16.46997H174.94v32h18.09998c1.51001,5.85004,3.82001,11.37006,6.82001,16.46002
	L187.06,143.40997l22.63,22.63l12.78998-12.79999c5.08002,3,10.61005,5.31,16.46002,6.82001v18.09998h32V160.06
	c5.85999-1.51001,11.38-3.82001,16.46997-6.82001l12.79004,12.79999l22.62-22.63L310.03003,130.62
	c3-5.08002,5.31-10.60999,6.81995-16.46002H334.94v-32H316.84998z M254.94,130.15997c-17.66998,0-32-14.32996-32-32
	c0-17.67999,14.33002-32,32-32c17.67999,0,32,14.32001,32,32C286.94,115.83002,272.62,130.15997,254.94,130.15997z"/>
<path class="st1" d="M254.944,138.15601c22.056,0,40-17.944,40-40s-17.944-40-40-40s-40,17.944-40,40
	S232.888,138.15601,254.944,138.15601z M254.944,74.156c13.23199,0,24,10.768,24,24s-10.76801,24-24,24s-24-10.768-24-24
	S241.71201,74.156,254.944,74.156z"/>
</svg>
