<?xml version="1.0" encoding="utf-8"?>
<!-- Generator: Adobe Illustrator 21.0.2, SVG Export Plug-In . SVG Version: 6.00 Build 0)  -->
<svg version="1.1" id="Capa_1" xmlns="http://www.w3.org/2000/svg" xmlns:xlink="http://www.w3.org/1999/xlink" x="0px" y="0px"
	 viewBox="0 0 351.2 349.9" style="enable-background:new 0 0 351.2 349.9;" xml:space="preserve">
<g>
	<g>
		<g>
			<path d="M342.5,276l-53.8-53.8c-10.7-10.7-28.4-10.3-39.5,0.7L222.1,250c-1.7-0.9-3.5-1.9-5.3-3c-17.1-9.5-40.5-22.5-65.1-47.1
				c-24.7-24.7-37.7-48.1-47.2-65.3c-1-1.8-2-3.6-2.9-5.2l18.2-18.1l8.9-8.9c11.1-11.1,11.4-28.8,0.7-39.5L75.6,9.1
				C64.9-1.6,47.2-1.3,36.1,9.8c0,0-10.4,8.6-15.1,15.2S12,39.4,8.9,47.5c-2.9,7.7-4.7,15-5.6,22.3c-7.1,58.9,19.8,112.7,92.8,185.6
				c100.9,100.9,182.2,93.2,185.7,92.9c7.6-0.9,15-2.7,22.4-5.6c8-3.1,18.6-9.4,22.3-12.1s15.3-15,15.3-15
				C352.8,304.4,353.2,286.7,342.5,276z"/>
		</g>
	</g>
</g>
</svg>
