<?xml version="1.0" encoding="utf-8"?>
<!-- Generator: Adobe Illustrator 21.0.2, SVG Export Plug-In . SVG Version: 6.00 Build 0)  -->
<svg version="1.1" id="Layer_1" xmlns="http://www.w3.org/2000/svg" xmlns:xlink="http://www.w3.org/1999/xlink" x="0px" y="0px"
	 viewBox="0 0 496 496" style="enable-background:new 0 0 496 496;" xml:space="preserve">
<style type="text/css">
	.st0{fill:#FC921F;}
	.st1{fill:#333333;}
</style>
<path class="st0" d="M174.98399,115.936C180.632,108.056,184,98.432,184,88c0-26.512-21.48801-48-48-48S88,61.488,88,88
	c0,10.432,3.368,20.056,9.016,27.936L72,216l24-16l16,32l17.04001-96.56c2.28,0.328,4.592,0.56,6.96001,0.56
	s4.67999-0.23199,6.96001-0.56L160,232l16-32l24,16L174.98399,115.936z"/>
<g>
	<path class="st1" d="M136,144c30.87199,0,56-25.128,56-56s-25.12801-56-56-56S80,57.128,80,88S105.128,144,136,144z M136,48
		c22.056,0,40,17.944,40,40s-17.944,40-40,40s-40-17.944-40-40S113.944,48,136,48z"/>
	<path class="st1" d="M472,128c-6.168,0-11.74399,2.408-16,6.24001c-4.25601-3.84-9.832-6.24001-16-6.24001h-88v-27.464L251.312,0H0
		v496h352V224h16v272h48V224h24c6.168,0,11.74399-2.408,16-6.24001c4.25601,3.84,9.832,6.24001,16,6.24001
		c13.23199,0,24-10.76801,24-24v-48C496,138.76801,485.23199,128,472,128z M256,27.296L324.80801,96H256V27.296z M16,480V16h224v96
		h96v17.472c-2.992,1.064-5.68799,2.688-8,4.76801c-4.25601-3.84-9.832-6.24001-16-6.24001c-13.23199,0-24,10.76801-24,24v48
		c0,13.23199,10.76801,24,24,24c6.168,0,11.74399-2.408,16-6.24001c2.31201,2.08,5.008,3.70399,8,4.76801V480H16z M320,200
		c0,4.416-3.58401,8-8,8s-8-3.584-8-8v-48c0-4.416,3.58401-8,8-8s8,3.584,8,8V200z M400,480h-16V224h16V480z M440,208h-24h-48h-24
		c-4.41599,0-8-3.584-8-8v-48c0-4.416,3.58401-8,8-8h96c4.41599,0,8,3.584,8,8v48C448,204.416,444.41599,208,440,208z M480,200
		c0,4.416-3.58401,8-8,8s-8-3.584-8-8v-48c0-4.416,3.58401-8,8-8s8,3.584,8,8V200z"/>
	<rect x="40" y="280" class="st1" width="272" height="16"/>
	<rect x="40" y="320" class="st1" width="272" height="16"/>
	<rect x="40" y="360" class="st1" width="272" height="16"/>
	<rect x="40" y="400" class="st1" width="272" height="16"/>
	<rect x="40" y="440" class="st1" width="272" height="16"/>
</g>
</svg>
