<?xml version="1.0" encoding="utf-8"?>
<!-- Generator: Adobe Illustrator 21.0.2, SVG Export Plug-In . SVG Version: 6.00 Build 0)  -->
<svg version="1.1" id="Layer_1" xmlns="http://www.w3.org/2000/svg" xmlns:xlink="http://www.w3.org/1999/xlink" x="0px" y="0px"
	 viewBox="0 0 496 496" style="enable-background:new 0 0 496 496;" xml:space="preserve">
<style type="text/css">
	.st0{fill:#FC921F;}
	.st1{fill:#333333;}
</style>
<g>
	<polygon class="st0" points="216,200 184,208 144,176 184,144 216,152 	"/>
	<path class="st0" d="M320,400H0v-80h320V400z"/>
</g>
<g>
	<rect x="24" y="320" class="st1" width="16" height="32"/>
	<rect x="56" y="320" class="st1" width="16" height="40"/>
	<rect x="88" y="320" class="st1" width="16" height="32"/>
	<rect x="120" y="320" class="st1" width="16" height="40"/>
	<rect x="152" y="320" class="st1" width="16" height="32"/>
	<rect x="184" y="320" class="st1" width="16" height="40"/>
	<rect x="216" y="320" class="st1" width="16" height="32"/>
	<rect x="248" y="320" class="st1" width="16" height="40"/>
	<path class="st1" d="M481.60001,152H424V64c0-13.232-10.76801-24-24-24h-64.112c-0.60001-8.912-7.95999-16-17.02399-16H296v-3
		c0-11.576-9.42401-21-21-21h-54c-11.576,0-21,9.424-21,21v3h-22.856c-9.064,0-16.424,7.088-17.024,16H96c-13.232,0-24,10.768-24,24
		v256h16V64c0-4.416,3.584-8,8-8h64v16h-56v248h16V88h40h176h40v64H216v48h232.34399l0.04001,4.752
		c0.02399,3-1.12,5.82401-3.23199,7.952C443.04001,214.832,440.224,216,437.23199,216H424h-16h-16h-10.832H376v232H120v-48h-16v64
		h288V232h16v240c0,4.41599-3.58401,8-8,8H96c-4.416,0-8-3.58401-8-8v-72H72v72c0,13.23199,10.768,24,24,24h304
		c13.23199,0,24-10.76801,24-24V232h13.23199c7.29599,0,14.14401-2.84801,19.28-8.03999
		c5.14401-5.17599,7.92801-12.056,7.86401-19.35201L464.34399,200h17.25601C489.53601,200,496,193.536,496,185.60001v-19.2
		C496,158.464,489.53601,152,481.60001,152z M176,72V41.144c0-0.64,0.504-1.144,1.144-1.144H216V21c0-2.76,2.24001-5,5-5h54
		c2.76001,0,5,2.24,5,5v19h38.85599C319.496,40,320,40.504,320,41.144V72H176z M336,72V56h64c4.41599,0,8,3.584,8,8v88h-16V72H336z
		 M232,168h16v16h-16V168z M264,184v-16h184.064l0.13599,16H264z M480,184h-15.79199l-0.13599-16H480V184z"/>
	<rect x="144" y="168" class="st1" width="40" height="16"/>
	<rect x="280" y="320" class="st1" width="16" height="32"/>
</g>
</svg>
