<?xml version="1.0" encoding="utf-8"?>
<!-- Generator: Adobe Illustrator 21.0.2, SVG Export Plug-In . SVG Version: 6.00 Build 0)  -->
<svg version="1.1" id="Layer_1" xmlns="http://www.w3.org/2000/svg" xmlns:xlink="http://www.w3.org/1999/xlink" x="0px" y="0px"
	 viewBox="0 0 290.62701 290.62701" style="enable-background:new 0 0 290.62701 290.62701;" xml:space="preserve">
<style type="text/css">
	.st0{fill:#FC921F;}
	.st1{fill:#333333;}
</style>
<g>
	<g>
		<rect x="42.188" y="56.25" class="st0" width="159.375" height="206.25"/>
		<path class="st1" d="M215.62601,28.125H177.263c-1.94099-5.442-7.097-9.375-13.2-9.375h-14.062v-4.688
			C150.00101,6.309,143.692,0,135.938,0h-28.125c-7.753,0-14.062,6.309-14.062,14.063v4.688H79.688
			c-6.103,0-11.259,3.933-13.2,9.375H28.126c-7.753,0-14.063,6.309-14.063,14.063v234.375c0,7.75299,6.309,14.06299,14.063,14.06299
			h187.5c7.75301,0,14.063-6.30899,14.063-14.06299V42.188C229.689,34.434,223.379,28.125,215.62601,28.125z M75.001,32.813
			c0-2.583,2.105-4.688,4.688-4.688h23.438V14.063c0-2.583,2.105-4.688,4.688-4.688h28.125c2.58299,0,4.688,2.105,4.688,4.688
			v14.063h23.438c2.58299,0,4.688,2.105,4.688,4.688v14.063c0,2.583-2.105,4.688-4.688,4.688H79.688
			c-2.583,0-4.688-2.105-4.688-4.688V32.813H75.001z M220.314,276.56299c0,2.58701-2.105,4.68799-4.688,4.68799h-187.5
			c-2.583,0-4.688-2.10001-4.688-4.68799V42.188c0-2.583,2.105-4.688,4.688-4.688h37.5v9.375c0,7.753,6.309,14.063,14.063,14.063
			h84.375c7.75301,0,14.063-6.309,14.063-14.063V37.5h37.5c2.58299,0,4.688,2.105,4.688,4.688v234.37498H220.314z"/>
		<path class="st1" d="M173.439,112.5h-46.875v-9.375h14.063V70.313h-37.5v32.813h14.063v9.375H70.313v18.75H56.251v32.813h37.5
			V131.25H79.688v-9.375h37.5v9.375h-14.063v32.813h37.5V131.25h-14.063v-9.375h37.5v9.375h-14.061v32.813h14.063v9.375h-46.875
			v18.75h-14.063V225h37.5v-32.813h-14.063v-9.375h46.875v-18.75h14.063V131.25h-14.063V112.5H173.439z M112.501,79.688h18.75001
			V93.75h-18.75C112.50101,93.75,112.50101,79.688,112.501,79.688z M84.376,154.688h-18.75v-14.063h18.75V154.688z
			 M131.25101,154.688h-18.75v-14.063h18.75V154.688z M131.25101,215.625h-18.75v-14.063h18.75V215.625z M178.12601,154.688h-18.75
			v-14.063h18.75V154.688z"/>
		<path class="st1" d="M262.50101,32.813c-7.75301,0-14.063,6.309-14.063,14.063v9.375v9.375V75v9.375v160.134l14.063,42.18799
			l14.06299-42.188V84.375V75v-9.375V56.25v-9.375C276.564,39.122,270.254,32.813,262.50101,32.813z M259.62799,248.438h5.742
			l-2.86899,8.61601L259.62799,248.438z M267.189,239.063h-9.375V84.375h9.375V239.063z M267.189,75h-9.375v-9.375h9.375V75z
			 M257.814,56.25v-9.375c0-2.583,2.10501-4.688,4.68799-4.688c2.58301,0,4.68799,2.105,4.68799,4.688v9.375H257.814z"/>
	</g>
</g>
</svg>
