<?xml version="1.0" encoding="utf-8"?>
<!-- Generator: Adobe Illustrator 21.0.2, SVG Export Plug-In . SVG Version: 6.00 Build 0)  -->
<svg version="1.1" id="Layer_1" xmlns="http://www.w3.org/2000/svg" xmlns:xlink="http://www.w3.org/1999/xlink" x="0px" y="0px"
	 viewBox="0 0 286.96899 286.96899" style="enable-background:new 0 0 286.96899 286.96899;" xml:space="preserve">
<style type="text/css">
	.st0{fill:#FC921F;}
	.st1{fill:#333333;}
</style>
<g>
	<g>
		<path class="st0" d="M168.75,131.76601h-46.875v-21.211c-11.63-7.795-18.75-20.981-18.75-35.039
			c0-23.264,18.923-42.188,42.188-42.188S187.5,52.251,187.5,75.515c0,14.058-7.12,27.244-18.75,35.039V131.76601z"/>
		<path class="st1" d="M286.96899,178.64101h-28.345c0.67499-8.606-1.866-17.13699-7.298-24.09399
			c-6.65199-8.517-16.664-13.40601-27.478-13.40601h-20.119l3.47301-18.75H150V88.715c5.442-1.941,9.375-7.097,9.375-13.2
			c0-7.753-6.30901-14.063-14.063-14.063c-7.75301,0-14.063,6.309-14.063,14.063c0,6.103,3.933,11.259,9.375,13.2v33.675h-78.9
			l-3.473,18.75H14.063v9.375h42.455l-1.734,9.375H9.375v9.375h43.669l-1.734,9.375H4.688v9.375h44.888l-1.734,9.375H0v9.375h46.102
			l-9.548,51.563h29.494c2.241,13.28,13.791,23.43799,27.703,23.43799s25.458-10.15799,27.703-23.43799h56.672h3.89999h10.584
			c2.241,13.28,13.791,23.43799,27.703,23.43799s25.45799-10.15799,27.703-23.43799h23.01601L286.96899,178.64101z M145.313,70.827
			c2.58701,0,4.688,2.1,4.688,4.688s-2.10001,4.688-4.688,4.688s-4.688-2.1-4.688-4.688S142.72501,70.827,145.313,70.827z
			 M93.75,272.39099c-10.341,0-18.75-8.409-18.75-18.75s8.409-18.75,18.75-18.75s18.75,8.409,18.75,18.75
			S104.091,272.39099,93.75,272.39099z M174.22501,248.952h-52.772c-2.241-13.28-13.791-23.438-27.703-23.438
			s-25.458,10.158-27.703,23.438H47.822l7.814-42.188H75v-9.375H57.37l1.734-9.375h20.583v-9.375H60.844l1.734-9.375h21.797v-9.375
			H64.317l1.734-9.375h23.011v-9.375H67.791l1.734-9.375h126.40301L174.22501,248.952z M220.313,272.39099
			c-10.341,0-18.75-8.409-18.75-18.75s8.409-18.75,18.75-18.75s18.75,8.409,18.75,18.75S230.65401,272.39099,220.313,272.39099z
			 M248.01601,248.952c-2.241-13.28-13.791-23.438-27.703-23.438s-25.45799,10.158-27.703,23.438h-8.85001l18.23-98.438h21.858
			c7.908,0,15.22501,3.577,20.091,9.806c4.866,6.23,6.55299,14.198,4.64101,21.87199l-1.453,5.82201h28.411l-12.18799,60.938
			H248.01601z"/>
		<rect x="140.625" y="5.202" class="st1" width="9.375" height="18.75"/>
		
			<rect x="110.15464" y="13.37123" transform="matrix(0.86602 -0.50001 0.50001 0.86602 4.01338 60.46981)" class="st1" width="9.37479" height="18.74959"/>
		
			<rect x="87.84972" y="35.67127" transform="matrix(0.50001 -0.86602 0.86602 0.50001 7.25679 102.66145)" class="st1" width="9.37479" height="18.74959"/>
		<rect x="75" y="70.827" class="st1" width="18.75" height="9.375"/>
		
			<rect x="83.16692" y="101.30142" transform="matrix(0.86609 -0.49989 0.49989 0.86609 -40.59057 60.45436)" class="st1" width="18.75027" height="9.37514"/>
		
			<rect x="193.39233" y="96.6102" transform="matrix(0.50001 -0.86602 0.86602 0.50001 7.25266 224.53215)" class="st1" width="9.37479" height="18.74959"/>
		<rect x="196.875" y="70.827" class="st1" width="18.75" height="9.375"/>
		
			<rect x="188.71486" y="40.36604" transform="matrix(0.86609 -0.49989 0.49989 0.86609 4.00479 105.05699)" class="st1" width="18.75027" height="9.37514"/>
		
			<rect x="166.40451" y="18.04948" transform="matrix(0.49989 -0.86609 0.86609 0.49989 68.21641 163.6115)" class="st1" width="18.75027" height="9.37514"/>
	</g>
</g>
</svg>
