<?xml version="1.0" encoding="utf-8"?>
<!-- Generator: Adobe Illustrator 21.0.2, SVG Export Plug-In . SVG Version: 6.00 Build 0)  -->
<svg version="1.1" id="Layer_1" xmlns="http://www.w3.org/2000/svg" xmlns:xlink="http://www.w3.org/1999/xlink" x="0px" y="0px"
	 viewBox="0 0 496 496" style="enable-background:new 0 0 496 496;" xml:space="preserve">
<style type="text/css">
	.st0{fill:#FC921F;}
	.st1{fill:#333333;}
</style>
<g>
	<rect x="248" y="200" class="st0" width="64" height="32"/>
	<rect x="360" y="200" class="st0" width="64" height="32"/>
	<rect x="48" y="224" class="st0" width="112" height="112"/>
</g>
<g>
	<path class="st1" d="M439.448,304l-8.008-112h-78.888l-8.008,112H327.448l-8.008-112h-78.888l-8.008,112H192v-96h16v-64h-19.472
		l-48-80H16v80H0v64h16v288h160h16h304V304H439.448z M416.552,208l1.14401,16h-51.392l1.14401-16H416.552z M365.16,240H418.84
		l4.56799,64h-62.81601L365.16,240z M304.552,208l1.14401,16h-51.392l1.144-16H304.552z M253.16,240H306.84l4.56799,64h-62.81601
		L253.16,240z M169.87199,144H140.528l-38.4-64H131.464L169.87199,144z M92.528,144l-38.4-64h29.344l38.4,64H92.528z M32,80h3.472
		l38.4,64H32V80z M16,160h176v32H16V160z M176,480H32V208h144v96V480z M480,480H192V320h39.408h97.18401h14.81601h97.18399H480V480z
		"/>
	<path class="st1" d="M242.84801,54.576c0.17599,0.456,0.32001,0.92,0.51199,1.368c0.87199,1.992,1.856,3.928,3.056,5.76
		C237.272,70.664,232,82.968,232,96c0,14.456,6.70399,28.12,17.88,37.168C248.64,136.608,248,140.26399,248,144
		c0,17.64799,14.35199,32,32,32s32-14.35201,32-32c0-3.688-0.64001-7.29601-1.84799-10.70399
		c8.19199-6.64,14.13599-15.912,16.58401-26.528c0.01599-0.064,0.03201-0.128,0.048-0.2c0.34399-1.536,0.616-3.096,0.80801-4.68
		c0.02399-0.216,0.07199-0.424,0.09601-0.632c0.20001-1.72,0.31201-3.472,0.31201-5.256c0-13.032-5.272-25.336-14.41602-34.296
		C317.76801,55.296,320,47.824,320,40c0-22.056-17.944-40-40-40s-40,17.944-40,40c0,2.464,0.29601,4.864,0.728,7.24
		c0.112,0.632,0.26401,1.24,0.408,1.856C241.576,50.968,242.144,52.792,242.84801,54.576z M280,16c13.23199,0,24,10.768,24,24
		c0,6.48-2.56,12.552-7.224,17.128l-6.992,6.848l8.112,5.488C306.728,75.44,312,85.36,312,96c0,1.96-0.23999,3.864-0.57599,5.736
		c-0.07999,0.456-0.168,0.904-0.272,1.352c-0.40799,1.792-0.92001,3.536-1.616,5.2c-0.12799,0.296-0.29599,0.576-0.43201,0.872
		c-0.57599,1.272-1.25601,2.488-1.992,3.672c-0.43201,0.68-0.87201,1.352-1.35199,2c-0.44,0.592-0.92801,1.144-1.40799,1.704
		c-2.36801,2.744-5.17599,5.168-8.48001,7.072l-0.75201,0.432c-4.53601,2.44-9.62399,3.96-15.12,3.96V144
		c5.46399,0,10.70401-0.96001,15.60001-2.65601C295.75201,142.23199,296,143.088,296,144c0,8.82401-7.17599,16-16,16
		s-16-7.17599-16-16c0-3.216,0.952-6.32001,2.76001-8.968l4.84-7.128l-7.46399-4.304C254.032,117.776,248,107.456,248,96
		c0-8.688,3.56-16.864,9.664-22.832C264.048,77.48,271.73599,80,280,80V64c-6.53601,0-12.45599-2.64-16.79199-6.896
		c-2.31201-2.272-4.112-4.92-5.328-7.8c-0.35999-0.856-0.56799-1.776-0.832-2.672c-0.17599-0.616-0.44-1.2-0.56799-1.832
		C256.168,43.256,256,41.648,256,40C256,26.768,266.76801,16,280,16z"/>
	<path class="st1" d="M354.84799,54.576c0.17599,0.456,0.32001,0.92,0.51199,1.368c0.87201,1.992,1.85599,3.928,3.056,5.76
		C349.272,70.664,344,82.968,344,96c0,14.456,6.70401,28.12,17.88,37.168c-1.23999,3.44-1.88,7.09599-1.88,10.832
		c0,17.64799,14.35199,32,32,32s32-14.35201,32-32c0-3.688-0.64001-7.29601-1.84799-10.70399
		c8.19199-6.64,14.13599-15.912,16.58401-26.528c0.01599-0.064,0.03201-0.128,0.048-0.2c0.34399-1.536,0.616-3.096,0.80801-4.68
		c0.02399-0.216,0.07199-0.424,0.09601-0.632c0.20001-1.72,0.31201-3.472,0.31201-5.256c0-13.032-5.272-25.336-14.41602-34.296
		C429.76801,55.296,432,47.824,432,40c0-22.056-17.944-40-40-40s-40,17.944-40,40c0,2.464,0.29599,4.864,0.728,7.24
		c0.112,0.632,0.26401,1.24,0.40799,1.856C353.57599,50.968,354.14401,52.792,354.84799,54.576z M392,16c13.23199,0,24,10.768,24,24
		c0,6.48-2.56,12.552-7.224,17.128l-6.992,6.848l8.112,5.488C418.728,75.44,424,85.36,424,96c0,1.96-0.23999,3.864-0.57599,5.736
		c-0.07999,0.456-0.168,0.904-0.272,1.352c-0.40799,1.792-0.92001,3.536-1.616,5.2c-0.12799,0.296-0.29599,0.576-0.43201,0.872
		c-0.57599,1.272-1.25601,2.488-1.992,3.672c-0.43201,0.68-0.87201,1.352-1.35199,2c-0.44,0.592-0.92801,1.144-1.40799,1.704
		c-2.36801,2.744-5.17599,5.168-8.48001,7.072l-0.75201,0.432c-4.53601,2.44-9.62399,3.96-15.12,3.96V144
		c5.46399,0,10.70401-0.96001,15.60001-2.65601C407.75201,142.23199,408,143.088,408,144c0,8.82401-7.17599,16-16,16
		s-16-7.17599-16-16c0-3.216,0.952-6.32001,2.76001-8.968l4.84-7.128l-7.46399-4.304C366.03201,117.776,360,107.456,360,96
		c0-8.688,3.56-16.864,9.664-22.832C376.048,77.48,383.73599,80,392,80V64c-6.53601,0-12.45599-2.64-16.79199-6.896
		c-2.31201-2.272-4.112-4.92-5.328-7.8c-0.35999-0.856-0.56799-1.776-0.832-2.672c-0.17599-0.616-0.44-1.2-0.56799-1.832
		C368.168,43.256,368,41.648,368,40C368,26.768,378.76801,16,392,16z"/>
	<path class="st1" d="M240,448h192v-96H240V448z M256,408h72v24h-72V408z M344,432v-24h72v24H344z M416,392h-72v-24h72V392z
		 M328,368v24h-72v-24H328z"/>
	<rect x="48" y="352" class="st1" width="16" height="16"/>
	<rect x="80" y="352" class="st1" width="48" height="16"/>
	<rect x="144" y="352" class="st1" width="16" height="16"/>
</g>
</svg>
