<?xml version="1.0" encoding="utf-8"?>
<!-- Generator: Adobe Illustrator 21.0.2, SVG Export Plug-In . SVG Version: 6.00 Build 0)  -->
<svg version="1.1" id="Layer_1" xmlns="http://www.w3.org/2000/svg" xmlns:xlink="http://www.w3.org/1999/xlink" x="0px" y="0px"
	 viewBox="0 0 496.01501 496.01501" style="enable-background:new 0 0 496.01501 496.01501;" xml:space="preserve">
<style type="text/css">
	.st0{fill:#333333;}
	.st1{fill:#FC921F;}
</style>
<path class="st0" d="M232.015,352.01099h-24.64c-2.952-20.504-17.024-37.42401-35.92801-44.448l-71.264-195.8l-60.144,21.896
	l69.24001,190.23201c-6.632,7.832-11.112,17.496-12.64,28.12H72.015c-39.696,0-72,32.29599-72,72v72h304v-72
	C304.01501,384.30701,271.711,352.01099,232.015,352.01099z M192.015,360.01099c0,22.056-17.944,40-40,40s-40-17.944-40-40
	s17.944-40,40-40S192.015,337.95499,192.015,360.01099z M60.559,143.21899l30.072-10.944l62.528,171.79202
	c-0.384-0.008-0.75999-0.056-1.144-0.056c-10.952,0-21.144,3.20801-29.784,8.664L60.559,143.21899z M48.015,480.01099h-32v-56
	c0-30.87201,25.12-56,56-56h24.64c0.816,5.64801,2.464,11.02399,4.84,16h-29.48c-22.056,0-40,17.944-40,40v16h16V480.01099z
	 M72.015,400.01099h40.888c10.104,9.88,23.90401,16,39.112,16s29.01601-6.12,39.112-16h40.888
	c13.23199,0,24.00002,10.76801,24.00002,24h-208C48.015,410.77899,58.783,400.01099,72.015,400.01099z M64.015,440.01099h176v40
	h-176V440.01099z M288.01501,480.01099h-32v-40h16v-16c0-22.056-17.944-40-40-40h-29.48c2.37601-4.97601,4.024-10.35199,4.84-16
	h24.64c30.88,0,56,25.12799,56,56V480.01099z"/>
<g>
	<path class="st1" d="M38.007,151.427L2.439,53.699c-3.656-10.04-3.192-20.896,1.328-30.584c4.512-9.68,12.528-17.024,22.576-20.68
		c10.04-3.656,20.912-3.168,30.584,1.328c9.68,4.512,17.024,12.528,20.68,22.576l35.568,97.728L38.007,151.427z"/>
	<path class="st1" d="M496.01501,208.011v-80h-38.15201c-2.504-8.16-5.76801-16.04-9.73599-23.544l26.95999-26.96l-56.56799-56.568
		l-26.95999,26.96c-7.504-3.976-15.384-7.232-23.54401-9.736V0.011h-80v38.152c-8.16,2.504-16.04001,5.768-23.54401,9.736
		l-26.95999-26.96l-56.56799,56.568l26.95999,26.96c-3.968,7.504-7.224,15.392-9.73599,23.544h-38.15201v80h38.15201
		c2.504,8.16,5.76801,16.03999,9.73599,23.54401l-26.95999,26.96001l56.56799,56.56799l26.95999-26.95999
		c7.504,3.96799,15.392,7.224,23.54401,9.73599v38.15201h80v-38.15201c8.16-2.504,16.04001-5.76801,23.54401-9.73599
		l26.95999,26.95999l56.56799-56.56799l-26.95999-26.95999c3.96799-7.504,7.224-15.392,9.73599-23.54401h38.15201V208.011z
		 M328.01501,232.011c-35.34399,0-64-28.65601-64-64s28.65601-64,64-64s64,28.65601,64,64S363.35901,232.011,328.01501,232.011z"/>
</g>
<g>
	<path class="st0" d="M328.01501,240.011c-39.69598,0-72-32.29601-72-72s32.30402-72,72-72s72,32.29601,72,72
		S367.711,240.011,328.01501,240.011z M328.01501,112.011c-30.88,0-56,25.12801-56,56s25.12,56,56,56s56-25.12801,56-56
		S358.89499,112.011,328.01501,112.011z"/>
	<rect x="320.01501" y="32.011" class="st0" width="16" height="16"/>
	
		<rect x="229.50595" y="69.5126" transform="matrix(0.70701 -0.70721 0.70721 0.70701 14.77023 190.67641)" class="st0" width="15.99985" height="15.99985"/>
	<rect x="192.015" y="160.011" class="st0" width="16" height="16"/>
	
		<rect x="229.48727" y="250.50243" transform="matrix(0.70711 -0.70711 0.70711 0.70711 -113.23038 243.6424)" class="st0" width="15.99985" height="15.99986"/>
	<rect x="320.01501" y="288.01099" class="st0" width="16" height="16"/>
	
		<rect x="410.48318" y="250.56438" transform="matrix(0.70701 -0.70721 0.70721 0.70701 -60.24571 371.71167)" class="st0" width="15.99985" height="15.99983"/>
	<rect x="448.01501" y="160.011" class="st0" width="16" height="16"/>
	
		<rect x="410.51663" y="69.52288" transform="matrix(0.70711 -0.70711 0.70711 0.70711 67.76376 318.64178)" class="st0" width="15.99985" height="15.99985"/>
	<path class="st0" d="M128.015,360.01099c0,13.23199,10.76801,24,24,24s24-10.76801,24-24s-10.76801-24-24-24
		S128.015,346.77899,128.015,360.01099z M160.015,360.01099c0,4.41599-3.592,8-8,8s-8-3.58401-8-8s3.592-8,8-8
		S160.015,355.595,160.015,360.01099z"/>
	
		<rect x="21.55787" y="90.23129" transform="matrix(0.93835 -0.34568 0.34568 0.93835 -30.17229 27.27864)" class="st0" width="79.6721" height="16.00182"/>
</g>
</svg>
