<?xml version="1.0" encoding="utf-8"?>
<!-- Generator: Adobe Illustrator 21.0.2, SVG Export Plug-In . SVG Version: 6.00 Build 0)  -->
<svg version="1.1" id="Layer_1" xmlns="http://www.w3.org/2000/svg" xmlns:xlink="http://www.w3.org/1999/xlink" x="0px" y="0px"
	 viewBox="0 0 496 496" style="enable-background:new 0 0 496 496;" xml:space="preserve">
<style type="text/css">
	.st0{fill:#FC921F;}
	.st1{fill:#333333;}
</style>
<g>
	<path class="st0" d="M472,496H264c-13.23199,0-24-10.76801-24-24V232c0-13.23199,10.76801-24,24-24h208
		c13.23199,0,24,10.76801,24,24v240C496,485.23199,485.23199,496,472,496z"/>
	<rect x="32" y="32" class="st0" width="160" height="96"/>
</g>
<g>
	<path class="st1" d="M368,256c-52.936,0-96,43.064-96,96s43.064,96,96,96s96-43.064,96-96S420.936,256,368,256z M447.59201,360
		c-1.60001,16.064-7.98401,30.73599-17.68799,42.59201l-16.24799-16.24799l-11.31201,11.31201l16.24799,16.24799
		c-11.85599,9.70401-26.52798,16.08801-42.59201,17.68799V408h-16v23.59201c-16.064-1.60001-30.73599-7.98401-42.59201-17.68799
		l16.24799-16.24799l-11.31201-11.31201l-16.24799,16.24799c-9.70401-11.85599-16.08801-26.52798-17.68799-42.59201H312v-16
		h-23.59201c1.60001-16.064,7.98401-30.73599,17.68799-42.59201l16.24799,16.24799l11.31201-11.31201l-16.24799-16.24799
		c11.85599-9.70401,26.52798-16.08801,42.59201-17.68799V296h16v-23.59201c16.064,1.60001,30.73599,7.98401,42.59201,17.68799
		l-16.24799,16.24799l11.31201,11.31201l16.24799-16.24799c9.70401,11.85599,16.08801,26.52798,17.68799,42.59201H424v16H447.59201z
		"/>
	<path class="st1" d="M376,329.47198V312h-16v17.47198c-9.28799,3.31201-16,12.112-16,22.52802c0,13.23199,10.76801,24,24,24
		s24-10.76801,24-24C392,341.58401,385.28799,332.784,376,329.47198z M368,360c-4.40799,0-8-3.59201-8-8s3.59201-8,8-8
		s8,3.59201,8,8S372.40799,360,368,360z"/>
	<polygon class="st1" points="304,16 336,16 336,208 352,208 352,0 288,0 288,208 304,208 	"/>
	<polygon class="st1" points="368,80 368,208 384,208 384,96 496,96 496,80 	"/>
	<rect x="432" y="112" class="st1" width="64" height="16"/>
	<rect x="400" y="112" class="st1" width="16" height="16"/>
	<rect x="432" y="144" class="st1" width="64" height="16"/>
	<rect x="400" y="144" class="st1" width="16" height="16"/>
	<rect x="432" y="176" class="st1" width="64" height="16"/>
	<rect x="400" y="176" class="st1" width="16" height="16"/>
	<path class="st1" d="M56,144c-13.232,0-24,10.76801-24,24s10.768,24,24,24s24-10.76801,24-24S69.232,144,56,144z M56,176
		c-4.408,0-8-3.592-8-8s3.592-8,8-8s8,3.592,8,8S60.408,176,56,176z"/>
	<path class="st1" d="M112,144c-13.232,0-24,10.76801-24,24s10.768,24,24,24s24-10.76801,24-24S125.232,144,112,144z M112,176
		c-4.408,0-8-3.592-8-8s3.592-8,8-8s8,3.592,8,8S116.408,176,112,176z"/>
	<path class="st1" d="M168,144c-13.23199,0-24,10.76801-24,24s10.76801,24,24,24s24-10.76801,24-24S181.23199,144,168,144z M168,176
		c-4.408,0-8-3.592-8-8s3.592-8,8-8s8,3.592,8,8S172.408,176,168,176z"/>
	<path class="st1" d="M176,312v-88h48V40c0-22.056-17.944-40-40-40H40C17.944,0,0,17.944,0,40v184h48v104
		c0,66.168,53.832,120,120,120h72v-16h-72c-57.344,0-104-46.65601-104-104V224h40v96c0,39.69598,32.304,72,72,72h64v-16h-64
		c-30.88,0-56-25.12-56-56v-96h40v88c0,13.23199,10.76801,24,24,24h56v-16h-56C179.592,320,176,316.40799,176,312z M16,40
		c0-13.232,10.768-24,24-24h144c13.23199,0,24,10.768,24,24v168H16V40z"/>
	<rect x="160" y="96" class="st1" width="16" height="16"/>
	<rect x="48" y="96" class="st1" width="96" height="16"/>
</g>
</svg>
