<?xml version="1.0" encoding="utf-8"?>
<!-- Generator: Adobe Illustrator 21.0.2, SVG Export Plug-In . SVG Version: 6.00 Build 0)  -->
<svg version="1.1" id="Capa_1" xmlns="http://www.w3.org/2000/svg" xmlns:xlink="http://www.w3.org/1999/xlink" x="0px" y="0px"
	 viewBox="0 0 464.99301 464.99301" style="enable-background:new 0 0 464.99301 464.99301;" xml:space="preserve">
<style type="text/css">
	.st0{fill:#FC921F;}
</style>
<g>
	<path class="st0" d="M420.33301,34.843C392.04199,12.374,354.52802,0,314.70001,0C274.871,0,237.35501,12.374,209.065,34.843
		c-28.798,22.871-44.658,53.435-44.658,86.062c0,57.425,49.55,106.388,118.67198,118.226
		c1.41199,18.27501-5.14499,36.45702-18.065,49.50099c-2.13101,2.14999-2.759,5.371-1.59399,8.16501s3.89499,4.61301,6.922,4.61301
		c36.819,0,68.41901-26.38101,75.69598-62.233c32.01199-5.464,61.18799-19.345,82.664-39.423
		c23.40201-21.881,36.29102-49.883,36.29102-78.849C464.99301,88.278,449.133,57.714,420.33301,34.843z"/>
	<path d="M420.33301,34.843C392.04199,12.374,354.52802,0,314.70001,0C274.871,0,237.35501,12.374,209.065,34.843
		c-28.798,22.871-44.658,53.435-44.658,86.062c0,57.425,49.55,106.388,118.67198,118.226
		c1.41199,18.27501-5.14499,36.45702-18.065,49.50099c-2.13101,2.14999-2.759,5.371-1.59399,8.16501s3.89499,4.61301,6.922,4.61301
		c36.819,0,68.41901-26.38101,75.69598-62.233c32.01199-5.464,61.18799-19.345,82.664-39.423
		c23.40201-21.881,36.29102-49.883,36.29102-78.849C464.99301,88.278,449.133,57.714,420.33301,34.843z M338.297,225.194
		c-3.90601,0.539-6.728,4.011-6.457,7.94299c0.004,0.058,0.009,0.11501,0.01401,0.172
		c-3.81299,24.55499-21.62701,44.10101-44.48901,50.69699c8.909-15.11301,12.616-33.04401,10.159-50.76801
		c0.00299-0.035,0.005-0.069,0.008-0.104c0.271-3.93401-2.55099-7.40401-6.45599-7.944
		c-64.705-8.94299-111.668-52.802-111.668-104.286C179.407,62.509,240.10001,15,314.70001,15s135.293,47.509,135.293,105.904
		C449.99301,172.399,403.01801,216.259,338.297,225.194z"/>
	<path d="M264.36499,112.904c-4.41101,0-8,3.589-8,8s3.58899,7.99999,8,7.99999s8-3.589,8-8S268.776,112.904,264.36499,112.904z"/>
	<path d="M365.03601,112.904c-4.41101,0-8,3.589-8,8s3.58899,7.99999,8,7.99999s8-3.589,8-8S369.448,112.904,365.03601,112.904z"/>
	<path d="M314.70001,112.904c-4.41101,0-8,3.589-8,8s3.58899,7.99999,8,7.99999s8-3.589,8-8S319.112,112.904,314.70001,112.904z"/>
	<path d="M360.81,409.51999c-0.75-0.95996-18.71997-23.75-40.40002-45.42999C298.72998,342.41,275.94,324.44998,274.97998,323.68997
		c-2.97998-2.33997-7.25-2.08997-9.92999,0.60004L236.62,352.70999L112.28003,228.37003l28.42999-28.42004
		c2.67999-2.69,2.94-6.95996,0.58997-9.94c-0.75-0.95996-18.71997-23.75-40.39996-45.42999
		c-21.68005-21.67999-44.47003-39.64001-45.43005-40.39996c-2.88995-2.27002-7-2.11005-9.70996,0.38
		c-1.72998,1.59998-42.57001,39.5-45.52002,71.48999c-3.88,42.12,38.67999,115.58997,105.90002,182.81
		c64.38,64.38,134.48999,106.13995,177.29999,106.13c1.89001,0,3.71997-0.08002,5.5-0.24005
		c31.98999-2.94995,69.89001-43.77997,71.48999-45.51996C362.91998,416.51999,363.08002,412.41,360.81,409.51999z M287.56,449.81003
		c-37.34003,3.45996-107.58002-38.32001-170.81-101.56006C53.51001,285.00998,11.73999,214.75998,15.17999,177.43002
		c1.76001-19.11005,23.59003-44.72003,36.10999-57.35004c7.94,6.52002,23.94,20.04004,39.01001,35.10999
		c15.01001,15.01001,28.48999,30.95001,35.03003,38.92004L96.38,223.06998c-2.92999,2.92004-2.92999,7.67004,0,10.60004
		L133.73999,271.03l6.92999,6.94c0.04004,0.03998,0.07001,0.07001,0.11005,0.09998l90.53998,90.55005
		c1.40997,1.39996,3.31,2.19995,5.29999,2.19995s3.90002-0.79999,5.31-2.19995L270.88,339.66
		c7.96997,6.53998,23.90002,20.01001,38.92999,35.03998c15.06,15.06,28.58002,31.06,35.09998,39
		C332.28003,426.23001,306.66998,448.05002,287.56,449.81003z"/>
	<path d="M151.37,267.45999l-7.02997-7.02997l6.94,6.92999C151.31,267.38998,151.34003,267.42001,151.37,267.45999z"/>
</g>
</svg>
