<?xml version="1.0" encoding="utf-8"?>
<!-- Generator: Adobe Illustrator 21.0.2, SVG Export Plug-In . SVG Version: 6.00 Build 0)  -->
<svg version="1.1" id="Layer_1" xmlns="http://www.w3.org/2000/svg" xmlns:xlink="http://www.w3.org/1999/xlink" x="0px" y="0px"
	 viewBox="0 0 17.2 24.3" style="enable-background:new 0 0 17.2 24.3;" xml:space="preserve">
<path d="M8.6,12.5c-2.1,0-3.8-1.7-3.8-3.9c0-2.1,1.7-3.9,3.8-3.9s3.8,1.7,3.8,3.9C12.4,10.7,10.7,12.5,8.6,12.5 M8.6,0.1
	c-4.7,0-8.5,3.8-8.5,8.5c0,4.5,3.8,10.2,6.4,13c1,1,2.1,2.5,2.1,2.5s1.2-1.4,2.2-2.5c2.6-2.7,6.3-8.1,6.3-13
	C17.1,3.9,13.3,0.1,8.6,0.1"/>
</svg>
