<?xml version="1.0" encoding="utf-8"?>
<!-- Generator: Adobe Illustrator 21.0.2, SVG Export Plug-In . SVG Version: 6.00 Build 0)  -->
<svg version="1.1" id="Layer_1" xmlns="http://www.w3.org/2000/svg" xmlns:xlink="http://www.w3.org/1999/xlink" x="0px" y="0px"
	 viewBox="0 0 295.23801 306.04614" style="enable-background:new 0 0 295.23801 306.04614;" xml:space="preserve">
<style type="text/css">
	.st0{fill:#FC921F;}
	.st1{fill:#333333;}
</style>
<g>
	<g>
		<g>
			<circle class="st0" cx="147.619" cy="48.90218" r="4.76199"/>
			<path class="st0" d="M191.66898,44.04718c0,13.38-6.13,26.01001-16.51996,34.35999v29.06669h-55.05999V78.40717
				c-10.39001-8.34998-16.52002-20.97998-16.52002-34.35999c0-24.28998,19.76001-44.04999,44.04998-44.04999
				S191.66898,19.7572,191.66898,44.04718z"/>
			<path class="st1" d="M152.379,82.23718V62.3172c5.52997-1.97998,9.52997-7.22003,9.52997-13.41998
				c0-7.87006-6.41998-14.28003-14.28998-14.28003c-7.88,0-14.28998,6.40997-14.28998,14.28003c0,6.19995,4,11.44,9.52997,13.41998
				v19.91998h-22.76995v9.52002h55.05999v-9.52002H152.379z M147.61899,53.66718c-2.63,0-4.76001-2.14001-4.76001-4.76996
				c0-2.62006,2.13-4.76001,4.76001-4.76001s4.76001,2.13995,4.76001,4.76001
				C152.379,51.52716,150.24899,53.66718,147.61899,53.66718z"/>
		</g>
		<path class="st1" d="M189.48999,216.32619l-5.162,8.00999c15.776,10.17101,25.19499,27.405,25.19499,46.095v26.09h-59.17101
			l34.714-59.505l-8.233-4.8l-29.214,50.09499l-29.21899-50.09399l-8.233,4.8l34.71899,59.50499H85.714v-26.09
			c0-18.69501,9.419-35.929,25.195-46.10001l-5.162-8.00999c-18.51,11.94299-29.557,32.16701-29.557,54.11v35.61398h142.85699
			v-35.61401C219.04799,248.48819,208,228.26419,189.48999,216.32619z"/>
		<path class="st1" d="M94.795,172.90219c0,28.99001,23.581,52.571,52.571,52.571s52.571-23.58099,52.571-52.571
			c0-28.98599-23.58099-52.571-52.571-52.571S94.795,143.91719,94.795,172.90219z M190.41399,172.90219
			c0,23.733-19.314,43.048-43.048,43.048s-43.048-19.314-43.048-43.048c0-23.73801,19.314-43.048,43.048-43.048
			S190.41399,149.16418,190.41399,172.90219z"/>
		<path class="st1" d="M83.038,190.44519c-3.938,1.12399-7.929,1.69501-11.857,1.69501c-23.733,0-43.048-19.314-43.048-43.048
			c0-23.738,19.314-43.048,43.048-43.048c12.957,0,25.1,5.762,33.324,15.814l7.376-6.033
			c-10.043-12.267-24.876-19.305-40.705-19.305c-28.99,0-52.571,23.586-52.571,52.57099c0,28.99001,23.581,52.571,52.571,52.571
			c4.814,0,9.681-0.69501,14.471-2.062L83.038,190.44519z"/>
		<path class="st1" d="M9.524,246.62119c0-18.69501,9.419-35.929,25.195-46.10001l-5.162-8.00999
			C11.048,204.45518,0,224.67819,0,246.62119v35.61398h61.905v-9.52399H9.524V246.62119z"/>
		<path class="st1" d="M276.129,149.09319c0-28.986-23.58099-52.571-52.571-52.571c-15.82401,0-30.657,7.038-40.7,19.305
			l7.37601,6.033c8.224-10.052,20.371-15.814,33.32401-15.814c23.733,0,43.048,19.31,43.048,43.048
			c0,23.733-19.314,43.048-43.048,43.048c-3.929,0-7.91901-0.571-11.85699-1.69501l-2.62399,9.15201
			c4.78999,1.371,9.662,2.071,14.481,2.071C252.54799,201.66418,276.129,178.08319,276.129,149.09319z"/>
		<path class="st1" d="M265.681,192.5172l-5.16199,8.00999c15.776,10.17101,25.19501,27.405,25.19501,46.095v26.09h-47.619l0,0
			h-9.524v9.52399h66.66699v-35.614C295.23801,224.67819,284.189,204.45518,265.681,192.5172z"/>
	</g>
</g>
</svg>
