<?xml version="1.0" encoding="UTF-8" standalone="no"?>
<svg
   xmlns:dc="http://purl.org/dc/elements/1.1/"
   xmlns:cc="http://creativecommons.org/ns#"
   xmlns:rdf="http://www.w3.org/1999/02/22-rdf-syntax-ns#"
   xmlns:svg="http://www.w3.org/2000/svg"
   xmlns="http://www.w3.org/2000/svg"
   xmlns:sodipodi="http://sodipodi.sourceforge.net/DTD/sodipodi-0.dtd"
   xmlns:inkscape="http://www.inkscape.org/namespaces/inkscape"
   version="1.1"
   id="logo"
   x="0px"
   y="0px"
   viewBox="0 0 297.51953 32.89941"
   inkscape:version="0.92.1 r15371"><metadata
     id="metadata50"><rdf:RDF><cc:Work
         rdf:about=""><dc:format>image/svg+xml</dc:format><dc:type
           rdf:resource="http://purl.org/dc/dcmitype/StillImage" /><dc:title></dc:title></cc:Work></rdf:RDF></metadata><defs
     id="defs48" /><sodipodi:namedview
     inkscape:current-layer="logo" /><style
     type="text/css"
     id="style10">
	.st0{fill:#FC921F;}
	.st1{fill:#FFFFFF;}
</style><g
     id="text"
     transform="translate(-31.09716,-32.5337)"><path
       class="st0"
       d="M 48.66309,35.48486 H 42.3999 V 56.28955 H 37.39648 V 35.48486 h -6.29932 v -2.5918 h 17.56592 v 2.5918 z"
       id="path12"
       inkscape:connector-curvature="0"
       style="fill:#fc921f" /><path
       class="st1"
       d="m 63.20752,53.15869 c 0,0 -1.72754,3.52734 -6.37109,3.52734 -5.0752,0 -8.42285,-2.62793 -8.42285,-9.07031 0,-6.37109 3.20361,-9.68359 7.99072,-9.68359 4.46387,0 7.05518,2.87988 7.05518,8.13477 0,1.44043 -0.2876,2.26758 -0.2876,2.26758 h -9.68311 c 0.07227,4.35547 1.18799,5.93945 3.92383,5.93945 2.77148,0 4.17529,-2.375 4.17529,-2.375 z m -9.71875,-7.16406 h 5.50732 v -0.82715 c 0,-3.6709 -0.68408,-4.93164 -2.5918,-4.93164 -1.90772,0 -2.73534,1.22363 -2.91552,5.75879 z"
       id="path14"
       inkscape:connector-curvature="0"
       style="fill:#ffffff" /><path
       class="st1"
       d="m 81.49512,56.28955 h -4.7876 V 40.92041 h -5.32715 v 15.36914 h -4.7876 V 38.29248 h 14.90234 v 17.99707 z"
       id="path16"
       inkscape:connector-curvature="0"
       style="fill:#ffffff" /><path
       class="st1"
       d="m 99.49512,56.28955 h -4.7876 V 40.92041 h -3.23975 c -0.21582,8.96289 -2.05176,15.76562 -6.51514,15.76562 -0.28809,0 -0.61182,-0.03613 -0.93604,-0.10742 l 0.18018,-2.88086 c 0.14404,0.03711 0.28809,0.03711 0.43213,0.03711 3.13135,0 4.13916,-6.08398 4.13916,-15.44238 h 10.72705 v 17.99707 z"
       id="path18"
       inkscape:connector-curvature="0"
       style="fill:#ffffff" /><path
       class="st1"
       d="m 111.12354,56.68604 c -5.39941,0 -8.38672,-3.41992 -8.38672,-9.39453 0,-5.97559 2.9873,-9.39453 8.38672,-9.39453 5.43555,0 8.42285,3.41895 8.42285,9.39453 0,5.9746 -3.23926,9.39453 -8.42285,9.39453 z m -3.23926,-9.43067 c 0,5.21973 0.86377,7.05469 3.23926,7.05469 2.37598,0 3.23975,-1.83496 3.23975,-7.01855 0,-5.18359 -0.86377,-6.9834 -3.23975,-6.9834 -2.37549,0 -3.23926,1.7998 -3.23926,6.94726 z"
       id="path20"
       inkscape:connector-curvature="0"
       style="fill:#ffffff" /><path
       class="st0"
       d="m 124.36426,32.89307 h 4.96777 v 10.83398 l 2.12354,-1.54688 6.875,-9.28711 h 3.45557 l -7.09082,9.14258 8.74658,14.25391 h -6.29883 l -6.26367,-10.50977 -1.54736,1.08008 v 9.42969 h -4.96777 V 32.89307 Z"
       id="path22"
       inkscape:connector-curvature="0"
       style="fill:#fc921f" /><path
       class="st1"
       d="m 146.28809,38.29248 h 3.85156 l 0.64795,1.62012 h 0.10791 c 0,0 1.51172,-2.01562 4.89551,-2.01562 4.28369,0 6.87549,3.5625 6.87549,9.03418 0,5.86719 -2.7002,9.75488 -7.12744,9.75488 -3.16748,0 -4.35547,-1.36719 -4.35547,-1.36719 h -0.10791 v 10.11426 h -4.7876 z m 4.78759,3.95996 v 10.50977 c 0,0 0.82764,1.1875 2.66357,1.1875 2.62744,0 3.77881,-1.65527 3.77881,-6.91016 0,-5.07617 -1.1875,-6.33594 -3.41895,-6.33594 -1.9077,0 -2.95165,1.4043 -3.02343,1.54883 z"
       id="path24"
       inkscape:connector-curvature="0"
       style="fill:#ffffff" /><path
       class="st1"
       d="m 166.88037,39.33643 c 0,0 2.77148,-1.43945 5.5791,-1.43945 4.21094,0 6.94727,1.43945 6.94727,6.29883 v 8.1709 c 0,1.51172 0.39648,1.90723 0.75586,1.90723 0.43164,0 1.22363,-0.25195 1.22363,-0.25195 l 0.14355,1.87207 c 0,0 -2.4834,0.79199 -3.99512,0.79199 -1.40332,0 -2.12402,-0.64844 -2.37598,-2.23242 H 174.979 c 0,0 -1.00781,2.23242 -4.71484,2.23242 -3.3125,0 -5.54395,-1.76367 -5.54395,-4.71484 0,-4.78809 6.04785,-6.01172 9.89941,-6.33594 v -1.04395 c 0,-3.34668 -0.90039,-4.2832 -2.98828,-4.2832 -1.69141,0 -4.2832,1.33105 -4.2832,1.33105 z m 7.73926,8.20703 c -2.98828,0.32422 -4.89648,1.29492 -4.89648,3.81543 0,1.97949 0.86523,2.91504 2.125,2.91504 1.97852,0 2.77148,-1.97949 2.77148,-1.97949 z"
       id="path26"
       inkscape:connector-curvature="0"
       style="fill:#ffffff" /><path
       class="st1"
       d="m 184.37549,38.29248 h 4.78711 v 7.52246 h 5.58008 v -7.52246 h 4.78711 v 17.99707 h -4.78711 v -8.02637 h -5.58008 v 8.02637 h -4.78711 z"
       id="path28"
       inkscape:connector-curvature="0"
       style="fill:#ffffff" /><path
       class="st0"
       d="m 205.24658,51.21533 c 0,0 1.9082,2.73438 5.61523,2.73438 3.49219,0 5.61523,-1.83496 5.9043,-8.09766 h -9.75586 v -2.55664 h 9.75586 c -0.1084,-6.47852 -1.44043,-8.09863 -5.43555,-8.09863 -2.7002,0 -5.25586,1.58301 -5.25586,1.58301 l -0.46777,-2.51953 c 0,0 3.02344,-1.72656 6.2998,-1.72656 7.3418,0 10.50977,4.60742 10.50977,11.94922 0,7.30762 -4.06738,12.20312 -10.43848,12.20312 -6.04785,0 -8.1709,-3.31152 -8.1709,-3.31152 z"
       id="path30"
       inkscape:connector-curvature="0"
       style="fill:#fc921f" /><path
       class="st0"
       d="m 225.87549,38.29248 h 4.78711 v 7.52246 l 2.26758,-1.1875 3.99609,-6.33496 h 2.77148 l -4.24805,6.73145 5.61523,11.26562 h -5.43555 l -3.81445,-8.53027 -1.15234,0.50391 v 8.02637 h -4.78711 V 38.29248 Z"
       id="path32"
       inkscape:connector-curvature="0"
       style="fill:#fc921f" /><path
       class="st0"
       d="m 251.72119,40.30811 c -2.55469,0 -4.03125,1.22363 -4.03125,7.01855 0,5.75977 1.69141,6.94727 3.8877,6.94727 2.84375,0 4.10352,-2.4834 4.10352,-2.4834 l 1.69238,1.08008 c 0,0 -1.33203,3.81543 -6.2998,3.81543 -5.50684,0 -8.56738,-3.20312 -8.56738,-9.28711 0,-5.83105 3.24023,-9.50195 8.67578,-9.50195 2.4834,0 5.25488,1.40332 5.25488,1.40332 l -0.46777,2.30371 c -10e-6,-1e-5 -2.55568,-1.2959 -4.24806,-1.2959 z"
       id="path34"
       inkscape:connector-curvature="0"
       style="fill:#fc921f" /><path
       class="st0"
       d="m 274.58057,56.28955 h -4.78711 V 40.92041 h -5.32715 v 15.36914 h -4.78809 V 38.29248 h 14.90234 v 17.99707 z"
       id="path36"
       inkscape:connector-curvature="0"
       style="fill:#fc921f" /><path
       class="st0"
       d="m 292.61572,53.15869 c 0,0 -1.72656,3.52734 -6.37109,3.52734 -5.07422,0 -8.42188,-2.62793 -8.42188,-9.07031 0,-6.37109 3.20312,-9.68359 7.99023,-9.68359 4.46387,0 7.05469,2.87988 7.05469,8.13477 0,1.44043 -0.28711,2.26758 -0.28711,2.26758 h -9.68359 c 0.0723,4.35547 1.18848,5.93945 3.92383,5.93945 2.77148,0 4.17578,-2.375 4.17578,-2.375 z m -9.71875,-7.16406 h 5.50781 v -0.82715 c 0,-3.6709 -0.68359,-4.93164 -2.5918,-4.93164 -1.90821,0 -2.73534,1.22363 -2.91601,5.75879 z"
       id="path38"
       inkscape:connector-curvature="0"
       style="fill:#fc921f" /><path
       class="st0"
       d="m 296.00244,38.29248 h 3.85156 l 0.64746,1.62012 h 0.1084 c 0,0 1.51172,-2.01562 4.89453,-2.01562 4.2832,0 6.875,3.5625 6.875,9.03418 0,5.86719 -2.69922,9.75488 -7.12695,9.75488 -3.16699,0 -4.35547,-1.36719 -4.35547,-1.36719 h -0.10742 v 10.11426 h -4.78711 z m 4.78711,3.95996 v 10.50977 c 0,0 0.82812,1.1875 2.66406,1.1875 2.62695,0 3.7793,-1.65527 3.7793,-6.91016 0,-5.07617 -1.1875,-6.33594 -3.41992,-6.33594 -1.9082,0 -2.95117,1.4043 -3.02344,1.54883 z"
       id="path40"
       inkscape:connector-curvature="0"
       style="fill:#fc921f" /><path
       class="st0"
       d="m 323.43311,40.92041 v 15.36914 h -4.75098 V 40.92041 h -5.18439 v -2.62793 h 15.11896 v 2.62793 z"
       id="path42"
       inkscape:connector-curvature="0"
       style="fill:#fc921f" /></g></svg>