<svg id="Layer_1" xmlns="http://www.w3.org/2000/svg" viewBox="0 0 509.888 509.888"><style>.st0{fill:none}.st1{fill:#333}.st2{fill:#fc921f}</style><path class="st0" d="M152.88 254.78c-5.91-4.18-9.94-11.81-9.94-20.62 0-7.81 3.17-14.7 8-19.08v18.87c0 7.09.72 14.04 1.94 20.83zm44.39 235.38H56.7l12.32-61.56a63.6 63.6 0 0 1 6.86-18.58 65.596 65.596 0 0 1 18.85-21.21s.01 0 .02-.01a62.76 62.76 0 0 1 3.98-2.67c.01 0 .01 0 .02-.01.68-.41 1.37-.82 2.06-1.22.01 0 .01 0 .02-.01 1.04-.6 2.11-1.16 3.19-1.69.01 0 .03-.01.05-.02 1.02-.51 2.07-.99 3.12-1.44.11-.05.23-.1.34-.15.66-.28 1.32-.55 1.99-.8.67-.26 1.34-.5 2.02-.73 2.81-.98 5.7-1.76 8.66-2.33l.78-.15c.15-.03.31-.05.46-.08l15.96-2.78 18.46-3.21-7.75 27.93 19.89 6.35-19.63 19.63 48.9 64.74zm145.67-280.24v24.03c0 40.62-24.23 76.97-61.73 92.6-16.69 6.95-35.84 6.95-52.53 0-37.5-15.63-61.74-51.98-61.74-92.6v-23.82c83.88-.53 115.87-9.34 127.5-14.58 7.46 4.68 23.78 12.86 48.5 14.37zm28 24.24c0 10.87-6.08 19.96-14.36 22.91 1.51-7.51 2.36-15.24 2.36-23.12v-21.76c7.06 3.71 12 12.15 12 21.97z"/><path class="st0" d="M237.78 490.16h-20.45l-47.81-63.27 28.37-28.37-30.25-9.64 6.32-22.74 27.44-21.48zm55.78-151.71l-37.93 151.71h-1.37l-37.93-151.7c2.04.99 4.08 1.98 6.19 2.86 10.3 4.29 21.36 6.44 32.42 6.44s22.12-2.16 32.43-6.45c2.11-.88 4.15-1.87 6.19-2.86zM312 398.52l28.37 28.37-47.81 63.27h-20.45L308.3 345.4l27.65 20.82 6.3 22.66z"/><path class="st1" d="M56.704 490.156zM37.18 506.16h.02l.01-.04-.03.04zM203.51 85.85a119.477 119.477 0 0 0-28.57 19.07v9.24h13.77c6.55-5.44 13.8-10.11 21.67-13.85l-6.87-14.46zm102.87 0l-6.87 14.46c7.86 3.74 15.12 8.41 21.66 13.85h13.77v-9.24c-8.45-7.6-18.03-14.06-28.56-19.07z"/><path class="st1" d="M456.56 425.45c-6.48-32.44-32.75-58.05-65.35-63.72l-18.71-3.25-26.29-4.57-34.79-26.19a115.793 115.793 0 0 0 40.38-53.66c19.45-.52 35.14-18.18 35.14-39.9 0-11.78-4.68-22.28-12-29.6v-10.4c0-34.35-15.02-66.77-40-89.24v9.24h-13.77c23.5 19.51 37.77 48.84 37.77 80h-8c-33.18 0-50.72-14.03-50.85-14.14l-4.84-4.62-5.15 4.4c-.86.59-22.01 14.36-131.16 14.36h-8c0-31.16 14.28-60.49 37.77-80h-13.77v-9.24c-24.97 22.47-40 54.89-40 89.24v15.16c-4.92 6.85-8 15.41-8 24.84 0 20.14 13.52 36.69 30.99 39.44 7.7 21.32 21.5 39.96 39.84 53.58l-34.18 26.74-44.93 7.81c-1.51.26-3.02.57-4.5.93-1 .23-1.99.49-2.98.76-.28.07-.57.15-.85.24-.31.09-.62.18-.93.28-.51.15-1.01.31-1.51.47-1.05.34-2.09.71-3.12 1.09-.2.07-.4.15-.59.22-.88.34-1.75.68-2.61 1.04-.17.07-.33.14-.49.21-24.16 10.31-42.47 32.14-47.74 58.48l-16.13 80.67-.01.04h435.5l-16.14-80.71zm-97.62-191.5v-21.76c7.06 3.71 12 12.15 12 21.97 0 10.87-6.08 19.96-14.36 22.91 1.51-7.51 2.36-15.24 2.36-23.12zm-216 .21c0-7.81 3.17-14.7 8-19.08v18.87c0 7.09.72 14.04 1.94 20.83-5.91-4.18-9.94-11.81-9.94-20.62zm24-.21v-23.82c83.88-.53 115.87-9.34 127.5-14.58 7.46 4.68 23.78 12.86 48.5 14.37v24.03c0 40.62-24.23 76.97-61.73 92.6-16.69 6.95-35.84 6.95-52.53 0-37.5-15.63-61.74-51.98-61.74-92.6zM56.7 490.16l12.32-61.56a63.6 63.6 0 0 1 6.86-18.58 65.596 65.596 0 0 1 18.85-21.21s.01 0 .02-.01a62.76 62.76 0 0 1 3.98-2.67c.01 0 .01 0 .02-.01.68-.42 1.37-.83 2.06-1.22.01 0 .01 0 .02-.01 1.04-.6 2.11-1.16 3.19-1.69.01 0 .03-.01.05-.02 1.02-.51 2.07-.99 3.12-1.44.11-.05.23-.1.34-.15.66-.27 1.32-.54 1.99-.8.67-.26 1.34-.5 2.02-.73 2.81-.98 5.7-1.76 8.66-2.33l.78-.15c.15-.03.31-.05.46-.08l15.96-2.78 18.46-3.21-7.75 27.93 19.89 6.35-19.63 19.63 48.9 64.74H56.7zm160.63 0l-47.81-63.27 28.37-28.37-30.25-9.64 6.32-22.74 27.44-21.48 36.38 145.5h-20.45zm36.93 0l-37.93-151.7c2.04.99 4.08 1.98 6.19 2.86 10.3 4.29 21.36 6.44 32.42 6.44s22.12-2.16 32.43-6.45c2.11-.88 4.15-1.87 6.19-2.86l-37.93 151.71h-1.37zm17.85 0L308.3 345.4l27.65 20.82 6.3 22.66-30.25 9.64 28.37 28.37-47.81 63.27h-20.45zm40.51 0l48.9-64.74-19.63-19.63 19.89-6.35-7.76-27.93 18.48 3.21 15.96 2.78c26.15 4.54 47.2 25.08 52.41 51.1l12.31 61.56H312.62z"/><path class="st1" d="M75.88 410.02a64.263 64.263 0 0 0-6.85 18.58l-12.31 61.56h-.02l12.32-61.56a63.601 63.601 0 0 1 6.86-18.58zm22.85-23.89c-1.36.85-2.69 1.74-3.98 2.67a62.75 62.75 0 0 1 3.98-2.67zm5.29-2.93c-1.08.54-2.15 1.1-3.19 1.69 1.04-.6 2.11-1.16 3.19-1.69z"/><path class="st2" d="M316.85 82.16a63.69 63.69 0 0 0-6.82-16.47l12.79-12.79-22.62-22.62-12.79 12.79c-5.09-3-10.61-5.31-16.47-6.82V18.16h-32v18.09a63.771 63.771 0 0 0-16.46 6.82l-12.79-12.79-22.63 22.62 12.8 12.79c-3 5.09-5.31 10.61-6.82 16.47h-18.1v32h18.1a63.77 63.77 0 0 0 6.82 16.46l-12.8 12.79 22.63 22.63 12.79-12.8c5.08 3 10.61 5.31 16.46 6.82v18.1h32v-18.1a63.692 63.692 0 0 0 16.47-6.82l12.79 12.8 22.62-22.63-12.79-12.79c3-5.08 5.31-10.61 6.82-16.46h18.09v-32h-18.09zm-61.91 48c-17.67 0-32-14.33-32-32 0-17.68 14.33-32 32-32 17.68 0 32 14.32 32 32 0 17.67-14.32 32-32 32z"/><path class="st1" d="M254.944 138.156c22.056 0 40-17.944 40-40s-17.944-40-40-40-40 17.944-40 40 17.944 40 40 40zm0-64c13.232 0 24 10.768 24 24s-10.768 24-24 24-24-10.768-24-24 10.768-24 24-24z"/></svg>