<svg id="Layer_1" xmlns="http://www.w3.org/2000/svg" viewBox="0 0 496 496"><style>.st0{fill:#fc921f}.st1{fill:#333}</style><path class="st0" d="M216 200l-32 8-40-32 40-32 32 8zm104 200H0v-80h320v80z"/><path class="st1" d="M24 320h16v32H24zm32 0h16v40H56zm32 0h16v32H88zm32 0h16v40h-16zm32 0h16v32h-16zm32 0h16v40h-16zm32 0h16v32h-16zm32 0h16v40h-16z"/><path class="st1" d="M481.6 152H424V64c0-13.232-10.768-24-24-24h-64.112c-.6-8.912-7.96-16-17.024-16H296v-3c0-11.576-9.424-21-21-21h-54c-11.576 0-21 9.424-21 21v3h-22.856c-9.064 0-16.424 7.088-17.024 16H96c-13.232 0-24 10.768-24 24v256h16V64c0-4.416 3.584-8 8-8h64v16h-56v248h16V88h256v64H216v48h232.344l.04 4.752c.024 3-1.12 5.824-3.232 7.952a11.084 11.084 0 0 1-7.92 3.296H376v232H120v-48h-16v64h288V232h16v240c0 4.416-3.584 8-8 8H96c-4.416 0-8-3.584-8-8v-72H72v72c0 13.232 10.768 24 24 24h304c13.232 0 24-10.768 24-24V232h13.232c7.296 0 14.144-2.848 19.28-8.04 5.144-5.176 7.928-12.056 7.864-19.352l-.032-4.608H481.6c7.936 0 14.4-6.464 14.4-14.4v-19.2c0-7.936-6.464-14.4-14.4-14.4zM176 72V41.144c0-.64.504-1.144 1.144-1.144H216V21c0-2.76 2.24-5 5-5h54c2.76 0 5 2.24 5 5v19h38.856c.64 0 1.144.504 1.144 1.144V72H176zm160 0V56h64c4.416 0 8 3.584 8 8v88h-16V72h-56zm-104 96h16v16h-16v-16zm32 16v-16h184.064l.136 16H264zm216 0h-15.792l-.136-16H480v16z"/><path class="st1" d="M144 168h40v16h-40zm136 152h16v32h-16z"/></svg>