<svg id="Layer_1" xmlns="http://www.w3.org/2000/svg" viewBox="0 0 290.62701 290.62701"><style>.st0{fill:#fc921f}.st1{fill:#333}</style><path class="st0" d="M42.188 56.25h159.375V262.5H42.188z"/><path class="st1" d="M215.626 28.125h-38.363c-1.941-5.442-7.097-9.375-13.2-9.375h-14.062v-4.688C150.001 6.309 143.692 0 135.938 0h-28.125c-7.753 0-14.062 6.309-14.062 14.063v4.688H79.688c-6.103 0-11.259 3.933-13.2 9.375H28.126c-7.753 0-14.063 6.309-14.063 14.063v234.375c0 7.753 6.309 14.063 14.063 14.063h187.5c7.753 0 14.063-6.309 14.063-14.063V42.188c0-7.754-6.31-14.063-14.063-14.063zM75.001 32.813a4.696 4.696 0 0 1 4.688-4.688h23.438V14.063a4.696 4.696 0 0 1 4.688-4.688h28.125a4.696 4.696 0 0 1 4.688 4.688v14.063h23.438a4.696 4.696 0 0 1 4.688 4.688v14.063a4.696 4.696 0 0 1-4.688 4.688H79.688A4.696 4.696 0 0 1 75 46.877V32.813h.001zm145.313 243.75a4.693 4.693 0 0 1-4.688 4.688h-187.5a4.693 4.693 0 0 1-4.688-4.688V42.188a4.696 4.696 0 0 1 4.688-4.688h37.5v9.375c0 7.753 6.309 14.063 14.063 14.063h84.375c7.753 0 14.063-6.309 14.063-14.063V37.5h37.5a4.696 4.696 0 0 1 4.688 4.688v234.375h-.001z"/><path class="st1" d="M173.439 112.5h-46.875v-9.375h14.063V70.313h-37.5v32.813h14.063v9.375H70.313v18.75H56.251v32.813h37.5V131.25H79.688v-9.375h37.5v9.375h-14.063v32.813h37.5V131.25h-14.063v-9.375h37.5v9.375h-14.061v32.813h14.063v9.375h-46.875v18.75h-14.063V225h37.5v-32.813h-14.063v-9.375h46.875v-18.75h14.063V131.25h-14.063V112.5h.001zm-60.938-32.812h18.75V93.75h-18.75V79.688zm-28.125 75h-18.75v-14.063h18.75v14.063zm46.875 0h-18.75v-14.063h18.75v14.063zm0 60.937h-18.75v-14.063h18.75v14.063zm46.875-60.937h-18.75v-14.063h18.75v14.063zm84.375-121.875c-7.753 0-14.063 6.309-14.063 14.063v197.633l14.063 42.188 14.063-42.188V46.875c0-7.753-6.31-14.062-14.063-14.062zm-2.873 215.625h5.742l-2.869 8.616-2.873-8.616zm7.561-9.375h-9.375V84.375h9.375v154.688zm0-164.063h-9.375v-9.375h9.375V75zm-9.375-18.75v-9.375a4.696 4.696 0 0 1 4.688-4.688 4.696 4.696 0 0 1 4.688 4.688v9.375h-9.376z"/></svg>