<svg id="Layer_1" xmlns="http://www.w3.org/2000/svg" viewBox="0 0 286.96899 286.96899"><style>.st0{fill:#fc921f}.st1{fill:#333}</style><path class="st0" d="M168.75 131.766h-46.875v-21.211c-11.63-7.795-18.75-20.981-18.75-35.039 0-23.264 18.923-42.188 42.188-42.188S187.5 52.251 187.5 75.515c0 14.058-7.12 27.244-18.75 35.039v21.212z"/><path class="st1" d="M286.969 178.641h-28.345c.675-8.606-1.866-17.137-7.298-24.094-6.652-8.517-16.664-13.406-27.478-13.406h-20.119l3.473-18.75H150V88.715c5.442-1.941 9.375-7.097 9.375-13.2 0-7.753-6.309-14.063-14.063-14.063-7.753 0-14.063 6.309-14.063 14.063 0 6.103 3.933 11.259 9.375 13.2v33.675h-78.9l-3.473 18.75H14.063v9.375h42.455l-1.734 9.375H9.375v9.375h43.669l-1.734 9.375H4.688v9.375h44.888l-1.734 9.375H0v9.375h46.102l-9.548 51.563h29.494c2.241 13.28 13.791 23.438 27.703 23.438s25.458-10.158 27.703-23.438h71.156c2.241 13.28 13.791 23.438 27.703 23.438s25.458-10.158 27.703-23.438h23.016l15.937-79.687zM145.313 70.827c2.587 0 4.688 2.1 4.688 4.688s-2.1 4.688-4.688 4.688-4.688-2.1-4.688-4.688 2.1-4.688 4.688-4.688zM93.75 272.391c-10.341 0-18.75-8.409-18.75-18.75s8.409-18.75 18.75-18.75 18.75 8.409 18.75 18.75-8.409 18.75-18.75 18.75zm80.475-23.439h-52.772c-2.241-13.28-13.791-23.438-27.703-23.438s-25.458 10.158-27.703 23.438H47.822l7.814-42.188H75v-9.375H57.37l1.734-9.375h20.583v-9.375H60.844l1.734-9.375h21.797v-9.375H64.317l1.734-9.375h23.011v-9.375H67.791l1.734-9.375h126.403l-21.703 117.188zm46.088 23.439c-10.341 0-18.75-8.409-18.75-18.75s8.409-18.75 18.75-18.75 18.75 8.409 18.75 18.75-8.409 18.75-18.75 18.75zm27.703-23.439c-2.241-13.28-13.791-23.438-27.703-23.438s-25.458 10.158-27.703 23.438h-8.85l18.23-98.438h21.858c7.908 0 15.225 3.577 20.091 9.806 4.866 6.23 6.553 14.198 4.641 21.872l-1.453 5.822h28.411l-12.188 60.938h-15.334zM140.625 5.202H150v18.75h-9.375z"/><path transform="rotate(-30.001 114.842 22.746)" class="st1" d="M110.155 13.371h9.375v18.75h-9.375z"/><path transform="rotate(-59.999 92.537 45.046)" class="st1" d="M87.85 35.671h9.375v18.75H87.85z"/><path class="st1" d="M75 70.827h18.75v9.375H75z"/><path transform="rotate(-29.993 92.543 105.99)" class="st1" d="M83.167 101.301h18.75v9.375h-18.75z"/><path transform="rotate(-59.999 198.08 105.985)" class="st1" d="M193.392 96.61h9.375v18.75h-9.375z"/><path class="st1" d="M196.875 70.827h18.75v9.375h-18.75z"/><path transform="rotate(-29.993 198.091 45.053)" class="st1" d="M188.715 40.366h18.75v9.375h-18.75z"/><path transform="rotate(-60.007 175.779 22.737)" class="st1" d="M166.405 18.049h18.75v9.375h-18.75z"/></svg>