<svg id="Layer_1" xmlns="http://www.w3.org/2000/svg" viewBox="0 0 496 496"><style>.st0{fill:#fc921f}.st1{fill:#333}</style><path class="st0" d="M248 200h64v32h-64zm112 0h64v32h-64zM48 224h112v112H48z"/><path class="st1" d="M439.448 304l-8.008-112h-78.888l-8.008 112h-17.096l-8.008-112h-78.888l-8.008 112H192v-96h16v-64h-19.472l-48-80H16v80H0v64h16v288h480V304h-56.552zm-22.896-96l1.144 16h-51.392l1.144-16h49.104zm-51.392 32h53.68l4.568 64h-62.816l4.568-64zm-60.608-32l1.144 16h-51.392l1.144-16h49.104zm-51.392 32h53.68l4.568 64h-62.816l4.568-64zm-83.288-96h-29.344l-38.4-64h29.336l38.408 64zm-77.344 0l-38.4-64h29.344l38.4 64H92.528zM32 80h3.472l38.4 64H32V80zm-16 80h176v32H16v-32zm160 320H32V208h144v272zm304 0H192V320h288v160z"/><path class="st1" d="M242.848 54.576c.176.456.32.92.512 1.368.872 1.992 1.856 3.928 3.056 5.76A47.976 47.976 0 0 0 232 96c0 14.456 6.704 28.12 17.88 37.168A31.902 31.902 0 0 0 248 144c0 17.648 14.352 32 32 32s32-14.352 32-32a32 32 0 0 0-1.848-10.704 48.06 48.06 0 0 0 16.584-26.528c.016-.064.032-.128.048-.2.344-1.536.616-3.096.808-4.68.024-.216.072-.424.096-.632.2-1.72.312-3.472.312-5.256a47.976 47.976 0 0 0-14.416-34.296C317.768 55.296 320 47.824 320 40c0-22.056-17.944-40-40-40s-40 17.944-40 40c0 2.464.296 4.864.728 7.24.112.632.264 1.24.408 1.856a39.54 39.54 0 0 0 1.712 5.48zM280 16c13.232 0 24 10.768 24 24 0 6.48-2.56 12.552-7.224 17.128l-6.992 6.848 8.112 5.488A32.012 32.012 0 0 1 312 96c0 1.96-.24 3.864-.576 5.736-.08.456-.168.904-.272 1.352-.408 1.792-.92 3.536-1.616 5.2-.128.296-.296.576-.432.872-.576 1.272-1.256 2.488-1.992 3.672a33.7 33.7 0 0 1-1.352 2c-.44.592-.928 1.144-1.408 1.704-2.368 2.744-5.176 5.168-8.48 7.072l-.752.432c-4.536 2.44-9.624 3.96-15.12 3.96v16c5.464 0 10.704-.96 15.6-2.656.152.888.4 1.744.4 2.656 0 8.824-7.176 16-16 16s-16-7.176-16-16c0-3.216.952-6.32 2.76-8.968l4.84-7.128-7.464-4.304C254.032 117.776 248 107.456 248 96c0-8.688 3.56-16.864 9.664-22.832A39.78 39.78 0 0 0 280 80V64c-6.536 0-12.456-2.64-16.792-6.896a24.065 24.065 0 0 1-5.328-7.8c-.36-.856-.568-1.776-.832-2.672-.176-.616-.44-1.2-.568-1.832A24.235 24.235 0 0 1 256 40c0-13.232 10.768-24 24-24zm74.848 38.576c.176.456.32.92.512 1.368.872 1.992 1.856 3.928 3.056 5.76A47.976 47.976 0 0 0 344 96c0 14.456 6.704 28.12 17.88 37.168A31.903 31.903 0 0 0 360 144c0 17.648 14.352 32 32 32s32-14.352 32-32a32 32 0 0 0-1.848-10.704 48.06 48.06 0 0 0 16.584-26.528c.016-.064.032-.128.048-.2.344-1.536.616-3.096.808-4.68.024-.216.072-.424.096-.632.2-1.72.312-3.472.312-5.256a47.976 47.976 0 0 0-14.416-34.296C429.768 55.296 432 47.824 432 40c0-22.056-17.944-40-40-40s-40 17.944-40 40c0 2.464.296 4.864.728 7.24.112.632.264 1.24.408 1.856a39.544 39.544 0 0 0 1.712 5.48zM392 16c13.232 0 24 10.768 24 24 0 6.48-2.56 12.552-7.224 17.128l-6.992 6.848 8.112 5.488A32.012 32.012 0 0 1 424 96c0 1.96-.24 3.864-.576 5.736-.08.456-.168.904-.272 1.352-.408 1.792-.92 3.536-1.616 5.2-.128.296-.296.576-.432.872-.576 1.272-1.256 2.488-1.992 3.672a33.7 33.7 0 0 1-1.352 2c-.44.592-.928 1.144-1.408 1.704-2.368 2.744-5.176 5.168-8.48 7.072l-.752.432c-4.536 2.44-9.624 3.96-15.12 3.96v16c5.464 0 10.704-.96 15.6-2.656.152.888.4 1.744.4 2.656 0 8.824-7.176 16-16 16s-16-7.176-16-16c0-3.216.952-6.32 2.76-8.968l4.84-7.128-7.464-4.304C366.032 117.776 360 107.456 360 96c0-8.688 3.56-16.864 9.664-22.832A39.78 39.78 0 0 0 392 80V64c-6.536 0-12.456-2.64-16.792-6.896a24.065 24.065 0 0 1-5.328-7.8c-.36-.856-.568-1.776-.832-2.672-.176-.616-.44-1.2-.568-1.832A24.235 24.235 0 0 1 368 40c0-13.232 10.768-24 24-24zM240 448h192v-96H240v96zm16-40h72v24h-72v-24zm88 24v-24h72v24h-72zm72-40h-72v-24h72v24zm-88-24v24h-72v-24h72zM48 352h16v16H48zm32 0h48v16H80zm64 0h16v16h-16z"/></svg>