<svg id="Layer_1" xmlns="http://www.w3.org/2000/svg" viewBox="0 0 496.01501 496.01501"><style>.st0{fill:#333}.st1{fill:#fc921f}</style><path class="st0" d="M232.015 352.011h-24.64c-2.952-20.504-17.024-37.424-35.928-44.448l-71.264-195.8-60.144 21.896 69.24 190.232a55.708 55.708 0 0 0-12.64 28.12H72.015c-39.696 0-72 32.296-72 72v72h304v-72c0-39.704-32.304-72-72-72zm-40 8c0 22.056-17.944 40-40 40s-40-17.944-40-40 17.944-40 40-40 40 17.944 40 40zM60.559 143.219l30.072-10.944 62.528 171.792c-.384-.008-.76-.056-1.144-.056-10.952 0-21.144 3.208-29.784 8.664L60.559 143.219zM48.015 480.011h-32v-56c0-30.872 25.12-56 56-56h24.64a55.5 55.5 0 0 0 4.84 16h-29.48c-22.056 0-40 17.944-40 40v16h16v40zm24-80h40.888c10.104 9.88 23.904 16 39.112 16s29.016-6.12 39.112-16h40.888c13.232 0 24 10.768 24 24h-208c0-13.232 10.768-24 24-24zm-8 40h176v40h-176v-40zm224 40h-32v-40h16v-16c0-22.056-17.944-40-40-40h-29.48a55.5 55.5 0 0 0 4.84-16h24.64c30.88 0 56 25.128 56 56v56z"/><path class="st1" d="M38.007 151.427L2.439 53.699c-3.656-10.04-3.192-20.896 1.328-30.584 4.512-9.68 12.528-17.024 22.576-20.68 10.04-3.656 20.912-3.168 30.584 1.328 9.68 4.512 17.024 12.528 20.68 22.576l35.568 97.728-75.168 27.36zm458.008 56.584v-80h-38.152a135.232 135.232 0 0 0-9.736-23.544l26.96-26.96-56.568-56.568-26.96 26.96a134.612 134.612 0 0 0-23.544-9.736V.011h-80v38.152a135.23 135.23 0 0 0-23.544 9.736l-26.96-26.96-56.568 56.568 26.96 26.96a136.113 136.113 0 0 0-9.736 23.544h-38.152v80h38.152a135.233 135.233 0 0 0 9.736 23.544l-26.96 26.96 56.568 56.568 26.96-26.96a136.113 136.113 0 0 0 23.544 9.736v38.152h80v-38.152a135.232 135.232 0 0 0 23.544-9.736l26.96 26.96 56.568-56.568-26.96-26.96a136.113 136.113 0 0 0 9.736-23.544h38.152zm-168 24c-35.344 0-64-28.656-64-64s28.656-64 64-64 64 28.656 64 64-28.656 64-64 64z"/><path class="st0" d="M328.015 240.011c-39.696 0-72-32.296-72-72s32.304-72 72-72 72 32.296 72 72-32.304 72-72 72zm0-128c-30.88 0-56 25.128-56 56s25.12 56 56 56 56-25.128 56-56-25.12-56-56-56zm-8-80h16v16h-16z"/><path transform="rotate(-45.008 237.505 77.512)" class="st0" d="M229.506 69.513h16v16h-16z"/><path class="st0" d="M192.015 160.011h16v16h-16z"/><path transform="rotate(-45 237.486 258.501)" class="st0" d="M229.487 250.502h16v16h-16z"/><path class="st0" d="M320.015 288.011h16v16h-16z"/><path transform="rotate(-45.008 418.481 258.563)" class="st0" d="M410.483 250.564h16v16h-16z"/><path class="st0" d="M448.015 160.011h16v16h-16z"/><path transform="rotate(-45 418.515 77.522)" class="st0" d="M410.517 69.523h16v16h-16z"/><path class="st0" d="M128.015 360.011c0 13.232 10.768 24 24 24s24-10.768 24-24-10.768-24-24-24-24 10.768-24 24zm32 0c0 4.416-3.592 8-8 8s-8-3.584-8-8 3.592-8 8-8 8 3.584 8 8z"/><path transform="rotate(-20.224 61.394 98.233)" class="st0" d="M21.558 90.231h79.672v16.002H21.558z"/></svg>