<svg id="Layer_1" xmlns="http://www.w3.org/2000/svg" viewBox="0 0 496 496"><style>.st0{fill:#fc921f}.st1{fill:#333}</style><path class="st0" d="M472 496H264c-13.232 0-24-10.768-24-24V232c0-13.232 10.768-24 24-24h208c13.232 0 24 10.768 24 24v240c0 13.232-10.768 24-24 24zM32 32h160v96H32z"/><path class="st1" d="M368 256c-52.936 0-96 43.064-96 96s43.064 96 96 96 96-43.064 96-96-43.064-96-96-96zm79.592 104c-1.6 16.064-7.984 30.736-17.688 42.592l-16.248-16.248-11.312 11.312 16.248 16.248c-11.856 9.704-26.528 16.088-42.592 17.688V408h-16v23.592c-16.064-1.6-30.736-7.984-42.592-17.688l16.248-16.248-11.312-11.312-16.248 16.248c-9.704-11.856-16.088-26.528-17.688-42.592H312v-16h-23.592c1.6-16.064 7.984-30.736 17.688-42.592l16.248 16.248 11.312-11.312-16.248-16.248c11.856-9.704 26.528-16.088 42.592-17.688V296h16v-23.592c16.064 1.6 30.736 7.984 42.592 17.688l-16.248 16.248 11.312 11.312 16.248-16.248c9.704 11.856 16.088 26.528 17.688 42.592H424v16h23.592z"/><path class="st1" d="M376 329.472V312h-16v17.472c-9.288 3.312-16 12.112-16 22.528 0 13.232 10.768 24 24 24s24-10.768 24-24c0-10.416-6.712-19.216-16-22.528zM368 360c-4.408 0-8-3.592-8-8s3.592-8 8-8 8 3.592 8 8-3.592 8-8 8zM304 16h32v192h16V0h-64v208h16zm64 64v128h16V96h112V80z"/><path class="st1" d="M432 112h64v16h-64zm-32 0h16v16h-16zm32 32h64v16h-64zm-32 0h16v16h-16zm32 32h64v16h-64zm-32 0h16v16h-16zM56 144c-13.232 0-24 10.768-24 24s10.768 24 24 24 24-10.768 24-24-10.768-24-24-24zm0 32c-4.408 0-8-3.592-8-8s3.592-8 8-8 8 3.592 8 8-3.592 8-8 8zm56-32c-13.232 0-24 10.768-24 24s10.768 24 24 24 24-10.768 24-24-10.768-24-24-24zm0 32c-4.408 0-8-3.592-8-8s3.592-8 8-8 8 3.592 8 8-3.592 8-8 8zm56-32c-13.232 0-24 10.768-24 24s10.768 24 24 24 24-10.768 24-24-10.768-24-24-24zm0 32c-4.408 0-8-3.592-8-8s3.592-8 8-8 8 3.592 8 8-3.592 8-8 8z"/><path class="st1" d="M176 312v-88h48V40c0-22.056-17.944-40-40-40H40C17.944 0 0 17.944 0 40v184h48v104c0 66.168 53.832 120 120 120h72v-16h-72c-57.344 0-104-46.656-104-104V224h40v96c0 39.696 32.304 72 72 72h64v-16h-64c-30.88 0-56-25.12-56-56v-96h40v88c0 13.232 10.768 24 24 24h56v-16h-56c-4.408 0-8-3.592-8-8zM16 40c0-13.232 10.768-24 24-24h144c13.232 0 24 10.768 24 24v168H16V40z"/><path class="st1" d="M160 96h16v16h-16zM48 96h96v16H48z"/></svg>