<svg id="Capa_1" xmlns="http://www.w3.org/2000/svg" viewBox="0 0 464.99301 464.99301"><style>.st0{fill:#fc921f}</style><path class="st0" d="M420.333 34.843C392.042 12.374 354.528 0 314.7 0c-39.829 0-77.345 12.374-105.635 34.843-28.798 22.871-44.658 53.435-44.658 86.062 0 57.425 49.55 106.388 118.672 118.226 1.412 18.275-5.145 36.457-18.065 49.501a7.499 7.499 0 0 0 5.328 12.778c36.819 0 68.419-26.381 75.696-62.233 32.012-5.464 61.188-19.345 82.664-39.423 23.402-21.881 36.291-49.883 36.291-78.849 0-32.627-15.86-63.191-44.66-86.062z"/><path d="M420.333 34.843C392.042 12.374 354.528 0 314.7 0c-39.829 0-77.345 12.374-105.635 34.843-28.798 22.871-44.658 53.435-44.658 86.062 0 57.425 49.55 106.388 118.672 118.226 1.412 18.275-5.145 36.457-18.065 49.501a7.499 7.499 0 0 0 5.328 12.778c36.819 0 68.419-26.381 75.696-62.233 32.012-5.464 61.188-19.345 82.664-39.423 23.402-21.881 36.291-49.883 36.291-78.849 0-32.627-15.86-63.191-44.66-86.062zm-82.036 190.351a7.5 7.5 0 0 0-6.443 8.115c-3.813 24.555-21.627 44.101-44.489 50.697a78.834 78.834 0 0 0 10.159-50.768l.008-.104a7.5 7.5 0 0 0-6.456-7.944c-64.705-8.943-111.668-52.802-111.668-104.286C179.407 62.509 240.1 15 314.7 15s135.293 47.509 135.293 105.904c0 51.495-46.975 95.355-111.696 104.29z"/><path d="M264.365 112.904c-4.411 0-8 3.589-8 8s3.589 8 8 8 8-3.589 8-8-3.589-8-8-8zm100.671 0c-4.411 0-8 3.589-8 8s3.589 8 8 8 8-3.589 8-8-3.588-8-8-8zm-50.336 0c-4.411 0-8 3.589-8 8s3.589 8 8 8 8-3.589 8-8-3.588-8-8-8zm46.11 296.616c-.75-.96-18.72-23.75-40.4-45.43s-44.47-39.64-45.43-40.4a7.491 7.491 0 0 0-9.93.6l-28.43 28.42-124.34-124.34 28.43-28.42c2.68-2.69 2.94-6.96.59-9.94-.75-.96-18.72-23.75-40.4-45.43s-44.47-39.64-45.43-40.4a7.5 7.5 0 0 0-9.71.38c-1.73 1.6-42.57 39.5-45.52 71.49-3.88 42.12 38.68 115.59 105.9 182.81 64.38 64.38 134.49 106.14 177.3 106.13 1.89 0 3.72-.08 5.5-.24 31.99-2.95 69.89-43.78 71.49-45.52a7.501 7.501 0 0 0 .38-9.71zm-73.25 40.29c-37.34 3.46-107.58-38.32-170.81-101.56C53.51 285.01 11.74 214.76 15.18 177.43c1.76-19.11 23.59-44.72 36.11-57.35 7.94 6.52 23.94 20.04 39.01 35.11 15.01 15.01 28.49 30.95 35.03 38.92l-28.95 28.96c-2.93 2.92-2.93 7.67 0 10.6l37.36 37.36 6.93 6.94c.04.04.07.07.11.1l90.54 90.55c1.41 1.4 3.31 2.2 5.3 2.2s3.9-.8 5.31-2.2l28.95-28.96c7.97 6.54 23.9 20.01 38.93 35.04 15.06 15.06 28.58 31.06 35.1 39-12.63 12.53-38.24 34.35-57.35 36.11z"/><path d="M151.37 267.46l-7.03-7.03 6.94 6.93c.03.03.06.06.09.1z"/></svg>