<svg id="Layer_1" xmlns="http://www.w3.org/2000/svg" viewBox="0 0 295.23801 306.04614"><style>.st0{fill:#fc921f}.st1{fill:#333}</style><circle class="st0" cx="147.619" cy="48.902" r="4.762"/><path class="st0" d="M191.669 44.047c0 13.38-6.13 26.01-16.52 34.36v29.067h-55.06V78.407c-10.39-8.35-16.52-20.98-16.52-34.36 0-24.29 19.76-44.05 44.05-44.05s44.05 19.76 44.05 44.05z"/><path class="st1" d="M152.379 82.237v-19.92c5.53-1.98 9.53-7.22 9.53-13.42 0-7.87-6.42-14.28-14.29-14.28-7.88 0-14.29 6.41-14.29 14.28 0 6.2 4 11.44 9.53 13.42v19.92h-22.77v9.52h55.06v-9.52h-22.77zm-4.76-28.57a4.765 4.765 0 1 1 0-9.53 4.765 4.765 0 0 1 0 9.53zm41.871 162.659l-5.162 8.01c15.776 10.171 25.195 27.405 25.195 46.095v26.09h-59.171l34.714-59.505-8.233-4.8-29.214 50.095-29.219-50.094-8.233 4.8 34.719 59.505H85.714v-26.09c0-18.695 9.419-35.929 25.195-46.1l-5.162-8.01c-18.51 11.943-29.557 32.167-29.557 54.11v35.614h142.857v-35.614c.001-21.944-11.047-42.168-29.557-54.106z"/><path class="st1" d="M94.795 172.902c0 28.99 23.581 52.571 52.571 52.571s52.571-23.58 52.571-52.57c0-28.987-23.581-52.572-52.571-52.572s-52.571 23.586-52.571 52.571zm95.619 0c0 23.733-19.314 43.048-43.048 43.048s-43.048-19.314-43.048-43.048c0-23.738 19.314-43.048 43.048-43.048s43.048 19.31 43.048 43.048z"/><path class="st1" d="M83.038 190.445c-3.938 1.124-7.929 1.695-11.857 1.695-23.733 0-43.048-19.314-43.048-43.048 0-23.738 19.314-43.048 43.048-43.048 12.957 0 25.1 5.762 33.324 15.814l7.376-6.033C101.838 103.558 87.005 96.52 71.176 96.52c-28.99 0-52.571 23.586-52.571 52.571 0 28.99 23.581 52.571 52.571 52.571 4.814 0 9.681-.695 14.471-2.062l-2.609-9.155zM9.524 246.621c0-18.695 9.419-35.929 25.195-46.1l-5.162-8.01C11.048 204.455 0 224.678 0 246.621v35.614h61.905v-9.524H9.524v-26.09zm266.605-97.528c0-28.986-23.581-52.57-52.571-52.57-15.824 0-30.657 7.037-40.7 19.304l7.376 6.033c8.224-10.052 20.371-15.814 33.324-15.814 23.733 0 43.048 19.31 43.048 43.048 0 23.733-19.314 43.048-43.048 43.048-3.929 0-7.919-.57-11.857-1.695l-2.624 9.152c4.79 1.371 9.662 2.071 14.481 2.071 28.99-.006 52.571-23.587 52.571-52.577zm-10.448 43.424l-5.162 8.01c15.776 10.171 25.195 27.405 25.195 46.095v26.09h-57.143v9.524h66.667v-35.614c0-21.944-11.049-42.167-29.557-54.105z"/></svg>